<svg width="128" height="128" viewBox="0 0 128 128" fill="none" xmlns="http://www.w3.org/2000/svg">
<g clip-path="url(#clip0_2_867)">
<rect width="128" height="128" fill="white"/>
<rect width="32" height="32" fill="#19C89C"/>
<path d="M4.85311 4.27532C5.03833 3.62385 5.96167 3.62385 6.14689 4.27532C6.22909 4.56446 6.49318 4.76393 6.79377 4.76393H6.83068C7.50602 4.76393 7.81109 5.60889 7.29151 6.04031L7.1427 6.16388C6.91703 6.35125 6.8232 6.65415 6.90341 6.93629L6.97561 7.19025C7.1527 7.81313 6.41912 8.29104 5.92092 7.87737C5.67688 7.67474 5.32312 7.67474 5.07908 7.87737C4.58088 8.29104 3.8473 7.81313 4.02439 7.19025L4.09659 6.93629C4.1768 6.65415 4.08297 6.35125 3.8573 6.16388L3.70849 6.04031C3.18891 5.60889 3.49398 4.76393 4.16932 4.76393H4.20623C4.50682 4.76393 4.77091 4.56446 4.85311 4.27532Z" fill="#00FFBF"/>
<path d="M12.2622 23.5546C12.4759 22.8147 13.5241 22.8147 13.7378 23.5546C13.8327 23.8832 14.1335 24.1094 14.4756 24.1094H14.5127C15.2811 24.1094 15.6249 25.0734 15.03 25.5596L14.8807 25.6816C14.6213 25.8936 14.5134 26.2399 14.6063 26.5617L14.6797 26.8156C14.885 27.5266 14.0504 28.0774 13.4774 27.6091C13.1996 27.382 12.8004 27.382 12.5226 27.6091C11.9496 28.0774 11.115 27.5266 11.3203 26.8156L11.3937 26.5617C11.4866 26.2399 11.3787 25.8936 11.1193 25.6816L10.97 25.5596C10.3751 25.0734 10.7189 24.1094 11.4873 24.1094H11.5244C11.8665 24.1094 12.1673 23.8832 12.2622 23.5546Z" fill="#00FFBF"/>
<path d="M26.4551 11.6771C26.6266 11.1492 27.3734 11.1492 27.5449 11.6771C27.6216 11.9131 27.8416 12.0729 28.0898 12.0729C28.6448 12.0729 28.8756 12.7832 28.4266 13.1094C28.2258 13.2553 28.1417 13.5139 28.2184 13.75C28.39 14.2779 27.7858 14.7168 27.3368 14.3906C27.136 14.2447 26.864 14.2447 26.6632 14.3906C26.2142 14.7168 25.61 14.2779 25.7816 13.75C25.8583 13.5139 25.7742 13.2553 25.5734 13.1094C25.1244 12.7832 25.3552 12.0729 25.9102 12.0729C26.1584 12.0729 26.3784 11.9131 26.4551 11.6771Z" fill="#00FFBF"/>
<path d="M5.41747 15.875C5.89859 15.0417 7.10141 15.0417 7.58253 15.875C8.06366 16.7083 7.46225 17.75 6.5 17.75C5.53775 17.75 4.93634 16.7083 5.41747 15.875Z" fill="#00FFBF"/>
<path d="M19.6262 7.52252C19.9135 6.6931 21.0865 6.6931 21.3738 7.52252C21.5819 8.12328 21.1358 8.75 20.5 8.75C19.8642 8.75 19.4181 8.12328 19.6262 7.52252Z" fill="#00FFBF"/>
<path d="M22.134 20.5C22.5189 19.8333 23.4811 19.8333 23.866 20.5C24.2509 21.1667 23.7698 22 23 22C22.2302 22 21.7491 21.1667 22.134 20.5Z" fill="#00FFBF"/>
<path d="M26.4175 2.875C26.8986 2.04167 28.1014 2.04167 28.5825 2.875C29.0637 3.70833 28.4623 4.75 27.5 4.75C26.5378 4.75 25.9363 3.70833 26.4175 2.875Z" fill="#00FFBF"/>
<ellipse cx="4.5" cy="26" rx="2.5" ry="3" fill="#00FFBF"/>
<circle cx="13.5" cy="3.5" r="2.5" fill="#00FFBF"/>
<ellipse cx="16" cy="15.5" rx="2" ry="2.5" fill="#00FFBF"/>
<circle cx="28" cy="28" r="2" fill="#00FFBF"/>
<rect y="32" width="32" height="32" fill="#19C89C"/>
<path d="M4.85311 36.2753C5.03833 35.6238 5.96167 35.6238 6.14689 36.2753C6.22909 36.5645 6.49318 36.7639 6.79377 36.7639H6.83068C7.50602 36.7639 7.81109 37.6089 7.29151 38.0403L7.1427 38.1639C6.91703 38.3513 6.8232 38.6541 6.90341 38.9363L6.97561 39.1903C7.1527 39.8131 6.41912 40.291 5.92092 39.8774C5.67688 39.6747 5.32312 39.6747 5.07908 39.8774C4.58088 40.291 3.8473 39.8131 4.02439 39.1903L4.09659 38.9363C4.1768 38.6541 4.08297 38.3513 3.8573 38.1639L3.70849 38.0403C3.18891 37.6089 3.49398 36.7639 4.16932 36.7639H4.20623C4.50682 36.7639 4.77091 36.5645 4.85311 36.2753Z" fill="#00FFBF"/>
<path d="M12.2622 55.5546C12.4759 54.8147 13.5241 54.8147 13.7378 55.5546C13.8327 55.8832 14.1335 56.1094 14.4756 56.1094H14.5127C15.2811 56.1094 15.6249 57.0734 15.03 57.5596L14.8807 57.6816C14.6213 57.8936 14.5134 58.2399 14.6063 58.5617L14.6797 58.8156C14.885 59.5266 14.0504 60.0774 13.4774 59.6091C13.1996 59.382 12.8004 59.382 12.5226 59.6091C11.9496 60.0774 11.115 59.5266 11.3203 58.8156L11.3937 58.5617C11.4866 58.2399 11.3787 57.8936 11.1193 57.6816L10.97 57.5596C10.3751 57.0734 10.7189 56.1094 11.4873 56.1094H11.5244C11.8665 56.1094 12.1673 55.8832 12.2622 55.5546Z" fill="#00FFBF"/>
<path d="M26.4551 43.6771C26.6266 43.1492 27.3734 43.1492 27.5449 43.6771C27.6216 43.9131 27.8416 44.0729 28.0898 44.0729C28.6448 44.0729 28.8756 44.7832 28.4266 45.1094C28.2258 45.2553 28.1417 45.5139 28.2184 45.75C28.39 46.2779 27.7858 46.7168 27.3368 46.3906C27.136 46.2447 26.864 46.2447 26.6632 46.3906C26.2142 46.7168 25.61 46.2779 25.7816 45.75C25.8583 45.5139 25.7742 45.2553 25.5734 45.1094C25.1244 44.7832 25.3552 44.0729 25.9102 44.0729C26.1584 44.0729 26.3784 43.9131 26.4551 43.6771Z" fill="#00FFBF"/>
<path d="M5.41747 47.875C5.89859 47.0417 7.10141 47.0417 7.58253 47.875C8.06366 48.7083 7.46225 49.75 6.5 49.75C5.53775 49.75 4.93634 48.7083 5.41747 47.875Z" fill="#00FFBF"/>
<path d="M19.6262 39.5225C19.9135 38.6931 21.0865 38.6931 21.3738 39.5225C21.5819 40.1233 21.1358 40.75 20.5 40.75C19.8642 40.75 19.4181 40.1233 19.6262 39.5225Z" fill="#00FFBF"/>
<path d="M22.134 52.5C22.5189 51.8333 23.4811 51.8333 23.866 52.5C24.2509 53.1667 23.7698 54 23 54C22.2302 54 21.7491 53.1667 22.134 52.5Z" fill="#00FFBF"/>
<path d="M26.2736 35.549C26.7681 34.5211 28.2319 34.5211 28.7264 35.549C29.1611 36.4525 28.5027 37.5 27.5 37.5C26.4973 37.5 25.8389 36.4525 26.2736 35.549Z" fill="#00FFBF"/>
<ellipse cx="4.5" cy="58" rx="2.5" ry="3" fill="#00FFBF"/>
<circle cx="13.5" cy="35.5" r="2.5" fill="#00FFBF"/>
<ellipse cx="16" cy="47.5" rx="2" ry="2.5" fill="#00FFBF"/>
<circle cx="28" cy="60" r="2" fill="#00FFBF"/>
<rect x="32" width="32" height="32" fill="#19C89C"/>
<path d="M36.8531 4.27532C37.0383 3.62385 37.9617 3.62385 38.1469 4.27532C38.2291 4.56446 38.4932 4.76393 38.7938 4.76393H38.8307C39.506 4.76393 39.8111 5.60889 39.2915 6.04031L39.1427 6.16388C38.917 6.35125 38.8232 6.65415 38.9034 6.93629L38.9756 7.19025C39.1527 7.81313 38.4191 8.29104 37.9209 7.87737C37.6769 7.67474 37.3231 7.67474 37.0791 7.87737C36.5809 8.29104 35.8473 7.81313 36.0244 7.19025L36.0966 6.93629C36.1768 6.65415 36.083 6.35125 35.8573 6.16388L35.7085 6.04031C35.1889 5.60889 35.494 4.76393 36.1693 4.76393H36.2062C36.5068 4.76393 36.7709 4.56446 36.8531 4.27532Z" fill="#00FFBF"/>
<path d="M44.2622 23.5546C44.4759 22.8147 45.5241 22.8147 45.7378 23.5546C45.8327 23.8832 46.1335 24.1094 46.4756 24.1094H46.5127C47.2811 24.1094 47.6249 25.0734 47.03 25.5596L46.8807 25.6816C46.6213 25.8936 46.5134 26.2399 46.6063 26.5617L46.6797 26.8156C46.885 27.5266 46.0504 28.0774 45.4774 27.6091C45.1996 27.382 44.8004 27.382 44.5226 27.6091C43.9496 28.0774 43.115 27.5266 43.3203 26.8156L43.3937 26.5617C43.4866 26.2399 43.3787 25.8936 43.1193 25.6816L42.97 25.5596C42.3751 25.0734 42.7189 24.1094 43.4873 24.1094H43.5244C43.8665 24.1094 44.1673 23.8832 44.2622 23.5546Z" fill="#00FFBF"/>
<path d="M58.4551 11.6771C58.6266 11.1492 59.3734 11.1492 59.5449 11.6771C59.6216 11.9131 59.8416 12.0729 60.0898 12.0729C60.6448 12.0729 60.8756 12.7832 60.4266 13.1094C60.2258 13.2553 60.1417 13.5139 60.2184 13.75C60.39 14.2779 59.7858 14.7168 59.3368 14.3906C59.136 14.2447 58.864 14.2447 58.6632 14.3906C58.2142 14.7168 57.61 14.2779 57.7816 13.75C57.8583 13.5139 57.7742 13.2553 57.5734 13.1094C57.1244 12.7832 57.3552 12.0729 57.9102 12.0729C58.1584 12.0729 58.3784 11.9131 58.4551 11.6771Z" fill="#00FFBF"/>
<path d="M36.701 16.25C37.2783 15.25 38.7217 15.25 39.299 16.25C39.8764 17.25 39.1547 18.5 38 18.5C36.8453 18.5 36.1236 17.25 36.701 16.25Z" fill="#00FFBF"/>
<path d="M51.6262 7.52252C51.9135 6.6931 53.0865 6.6931 53.3738 7.52252C53.5819 8.12328 53.1358 8.75 52.5 8.75C51.8642 8.75 51.4181 8.12328 51.6262 7.52252Z" fill="#00FFBF"/>
<path d="M53.6019 20.2444C54.044 19.6319 54.956 19.6319 55.3981 20.2444C55.9267 20.9768 55.4033 22 54.5 22C53.5967 22 53.0733 20.9768 53.6019 20.2444Z" fill="#00FFBF"/>
<path d="M57.9942 3.17757C58.3904 2.3198 59.6096 2.3198 60.0058 3.17757C60.3449 3.9117 59.8087 4.75 59 4.75C58.1913 4.75 57.6551 3.9117 57.9942 3.17757Z" fill="#00FFBF"/>
<ellipse cx="36.5" cy="26" rx="2.5" ry="3" fill="#00FFBF"/>
<circle cx="45.5" cy="3.5" r="2.5" fill="#00FFBF"/>
<circle cx="47.5" cy="15.5" r="2.5" fill="#00FFBF"/>
<circle cx="59" cy="28" r="2" fill="#00FFBF"/>
<rect x="32" y="32" width="32" height="32" fill="#19C89C"/>
<path d="M36.8531 36.2753C37.0383 35.6238 37.9617 35.6238 38.1469 36.2753C38.2291 36.5645 38.4932 36.7639 38.7938 36.7639H38.8307C39.506 36.7639 39.8111 37.6089 39.2915 38.0403L39.1427 38.1639C38.917 38.3513 38.8232 38.6541 38.9034 38.9363L38.9756 39.1903C39.1527 39.8131 38.4191 40.291 37.9209 39.8774C37.6769 39.6747 37.3231 39.6747 37.0791 39.8774C36.5809 40.291 35.8473 39.8131 36.0244 39.1903L36.0966 38.9363C36.1768 38.6541 36.083 38.3513 35.8573 38.1639L35.7085 38.0403C35.1889 37.6089 35.494 36.7639 36.1693 36.7639H36.2062C36.5068 36.7639 36.7709 36.5645 36.8531 36.2753Z" fill="#00FFBF"/>
<path d="M44.2622 55.5546C44.4759 54.8147 45.5241 54.8147 45.7378 55.5546C45.8327 55.8832 46.1335 56.1094 46.4756 56.1094H46.5127C47.2811 56.1094 47.6249 57.0734 47.03 57.5596L46.8807 57.6816C46.6213 57.8936 46.5134 58.2399 46.6063 58.5617L46.6797 58.8156C46.885 59.5266 46.0504 60.0774 45.4774 59.6091C45.1996 59.382 44.8004 59.382 44.5226 59.6091C43.9496 60.0774 43.115 59.5266 43.3203 58.8156L43.3937 58.5617C43.4866 58.2399 43.3787 57.8936 43.1193 57.6816L42.97 57.5596C42.3751 57.0734 42.7189 56.1094 43.4873 56.1094H43.5244C43.8665 56.1094 44.1673 55.8832 44.2622 55.5546Z" fill="#00FFBF"/>
<path d="M58.4551 43.6771C58.6266 43.1492 59.3734 43.1492 59.5449 43.6771C59.6216 43.9131 59.8416 44.0729 60.0898 44.0729C60.6448 44.0729 60.8756 44.7832 60.4266 45.1094C60.2258 45.2553 60.1417 45.5139 60.2184 45.75C60.39 46.2779 59.7858 46.7168 59.3368 46.3906C59.136 46.2447 58.864 46.2447 58.6632 46.3906C58.2142 46.7168 57.61 46.2779 57.7816 45.75C57.8583 45.5139 57.7742 45.2553 57.5734 45.1094C57.1244 44.7832 57.3552 44.0729 57.9102 44.0729C58.1584 44.0729 58.3784 43.9131 58.4551 43.6771Z" fill="#00FFBF"/>
<path d="M36.8815 47.6144C37.4226 46.8333 38.5774 46.8333 39.1185 47.6144C39.7437 48.5168 39.0978 49.75 38 49.75C36.9022 49.75 36.2563 48.5168 36.8815 47.6144Z" fill="#00FFBF"/>
<path d="M51.6262 39.5225C51.9135 38.6931 53.0865 38.6931 53.3738 39.5225C53.5819 40.1233 53.1358 40.75 52.5 40.75C51.8642 40.75 51.4181 40.1233 51.6262 39.5225Z" fill="#00FFBF"/>
<path d="M53.6019 52.2444C54.044 51.6319 54.956 51.6319 55.3981 52.2444C55.9267 52.9768 55.4033 54 54.5 54C53.5967 54 53.0733 52.9768 53.6019 52.2444Z" fill="#00FFBF"/>
<path d="M57.8901 35.8836C58.2812 34.8675 59.7188 34.8675 60.1099 35.8836C60.4097 36.6626 59.8347 37.5 59 37.5C58.1653 37.5 57.5903 36.6626 57.8901 35.8836Z" fill="#00FFBF"/>
<ellipse cx="36.5" cy="58" rx="2.5" ry="3" fill="#00FFBF"/>
<circle cx="45.5" cy="35.5" r="2.5" fill="#00FFBF"/>
<circle cx="47.5" cy="47.5" r="2.5" fill="#00FFBF"/>
<circle cx="59" cy="60" r="2" fill="#00FFBF"/>
<rect y="64" width="32" height="32" fill="#19C89C"/>
<path d="M4.86428 67.9566C5.06437 67.3407 5.93563 67.3407 6.13572 67.9566C6.22521 68.232 6.48186 68.4184 6.77145 68.4184C7.41898 68.4184 7.68822 69.247 7.16435 69.6277C6.93007 69.7979 6.83204 70.0996 6.92152 70.375C7.12162 70.9908 6.41677 71.503 5.8929 71.1223C5.65862 70.9521 5.34138 70.9521 5.1071 71.1223C4.58323 71.503 3.87838 70.9908 4.07848 70.375C4.16796 70.0996 4.06993 69.7979 3.83565 69.6277C3.31178 69.247 3.58102 68.4184 4.22855 68.4184C4.51814 68.4184 4.77479 68.232 4.86428 67.9566Z" fill="#00FFBF"/>
<path d="M12.2622 87.5546C12.4759 86.8147 13.5241 86.8147 13.7378 87.5546C13.8327 87.8832 14.1335 88.1094 14.4756 88.1094H14.5127C15.2811 88.1094 15.6249 89.0734 15.03 89.5596L14.8807 89.6816C14.6213 89.8936 14.5134 90.2399 14.6063 90.5617L14.6797 90.8156C14.885 91.5266 14.0504 92.0774 13.4774 91.6091C13.1996 91.382 12.8004 91.382 12.5226 91.6091C11.9496 92.0774 11.115 91.5266 11.3203 90.8156L11.3937 90.5617C11.4866 90.2399 11.3787 89.8936 11.1193 89.6816L10.97 89.5596C10.3751 89.0734 10.7189 88.1094 11.4873 88.1094H11.5244C11.8665 88.1094 12.1673 87.8832 12.2622 87.5546Z" fill="#00FFBF"/>
<path d="M26.8643 74.9566C27.0644 74.3407 27.9356 74.3407 28.1357 74.9566C28.2252 75.232 28.4819 75.4184 28.7714 75.4184C29.419 75.4184 29.6882 76.247 29.1643 76.6277C28.9301 76.7979 28.832 77.0996 28.9215 77.375C29.1216 77.9908 28.4168 78.503 27.8929 78.1223C27.6586 77.9521 27.3414 77.9521 27.1071 78.1223C26.5832 78.503 25.8784 77.9908 26.0785 77.375C26.168 77.0996 26.0699 76.7979 25.8357 76.6277C25.3118 76.247 25.581 75.4184 26.2286 75.4184C26.5181 75.4184 26.7748 75.232 26.8643 74.9566Z" fill="#00FFBF"/>
<path d="M5.41747 79.875C5.89859 79.0417 7.10141 79.0417 7.58253 79.875C8.06366 80.7083 7.46225 81.75 6.5 81.75C5.53775 81.75 4.93634 80.7083 5.41747 79.875Z" fill="#00FFBF"/>
<path d="M20.134 70.5C20.5189 69.8333 21.4811 69.8333 21.866 70.5C22.2509 71.1667 21.7698 72 21 72C20.2302 72 19.7491 71.1667 20.134 70.5Z" fill="#00FFBF"/>
<path d="M22.134 84.5C22.5189 83.8333 23.4811 83.8333 23.866 84.5C24.2509 85.1667 23.7698 86 23 86C22.2302 86 21.7491 85.1667 22.134 84.5Z" fill="#00FFBF"/>
<path d="M26.4175 66.875C26.8986 66.0417 28.1014 66.0417 28.5825 66.875C29.0637 67.7083 28.4623 68.75 27.5 68.75C26.5378 68.75 25.9363 67.7083 26.4175 66.875Z" fill="#00FFBF"/>
<ellipse cx="4.5" cy="90" rx="2.5" ry="3" fill="#00FFBF"/>
<ellipse cx="14" cy="67.5" rx="2" ry="2.5" fill="#00FFBF"/>
<circle cx="16.5" cy="79.5" r="2.5" fill="#00FFBF"/>
<circle cx="28" cy="92" r="2" fill="#00FFBF"/>
<rect y="96" width="32" height="32" fill="#19C89C"/>
<path d="M4.85311 100.275C5.03833 99.6238 5.96167 99.6238 6.14689 100.275C6.22909 100.564 6.49318 100.764 6.79377 100.764H6.83068C7.50602 100.764 7.81109 101.609 7.29151 102.04L7.1427 102.164C6.91703 102.351 6.8232 102.654 6.90341 102.936L6.97561 103.19C7.1527 103.813 6.41912 104.291 5.92092 103.877C5.67688 103.675 5.32312 103.675 5.07908 103.877C4.58088 104.291 3.8473 103.813 4.02439 103.19L4.09659 102.936C4.1768 102.654 4.08297 102.351 3.8573 102.164L3.70849 102.04C3.18891 101.609 3.49398 100.764 4.16932 100.764H4.20623C4.50682 100.764 4.77091 100.564 4.85311 100.275Z" fill="#00FFBF"/>
<path d="M12.2622 119.555C12.4759 118.815 13.5241 118.815 13.7378 119.555C13.8327 119.883 14.1335 120.109 14.4756 120.109H14.5127C15.2811 120.109 15.6249 121.073 15.03 121.56L14.8807 121.682C14.6213 121.894 14.5134 122.24 14.6063 122.562L14.6797 122.816C14.885 123.527 14.0504 124.077 13.4774 123.609C13.1996 123.382 12.8004 123.382 12.5226 123.609C11.9496 124.077 11.115 123.527 11.3203 122.816L11.3937 122.562C11.4866 122.24 11.3787 121.894 11.1193 121.682L10.97 121.56C10.3751 121.073 10.7189 120.109 11.4873 120.109H11.5244C11.8665 120.109 12.1673 119.883 12.2622 119.555Z" fill="#00FFBF"/>
<path d="M26.8772 107.643C27.0945 107.07 27.9055 107.07 28.1228 107.643L28.1372 107.681C28.2266 107.917 28.4527 108.073 28.705 108.073H28.8664C29.4306 108.073 29.6419 108.812 29.163 109.11C28.9355 109.252 28.8415 109.539 28.9365 109.789C29.1353 110.314 28.5605 110.806 28.0844 110.51L27.8575 110.369C27.6387 110.232 27.3613 110.232 27.1425 110.369L26.9156 110.51C26.4395 110.806 25.8647 110.314 26.0635 109.789C26.1585 109.539 26.0645 109.252 25.837 109.11C25.3581 108.812 25.5694 108.073 26.1336 108.073H26.295C26.5473 108.073 26.7734 107.917 26.8628 107.681L26.8772 107.643Z" fill="#00FFBF"/>
<path d="M5.41747 111.875C5.89859 111.042 7.10141 111.042 7.58253 111.875C8.06366 112.708 7.46225 113.75 6.5 113.75C5.53775 113.75 4.93634 112.708 5.41747 111.875Z" fill="#00FFBF"/>
<path d="M19.9942 103.178C20.3904 102.32 21.6096 102.32 22.0058 103.178C22.3449 103.912 21.8087 104.75 21 104.75C20.1913 104.75 19.6551 103.912 19.9942 103.178Z" fill="#00FFBF"/>
<path d="M22.134 116.5C22.5189 115.833 23.4811 115.833 23.866 116.5C24.2509 117.167 23.7698 118 23 118C22.2302 118 21.7491 117.167 22.134 116.5Z" fill="#00FFBF"/>
<path d="M26.4175 98.875C26.8986 98.0417 28.1014 98.0417 28.5825 98.875C29.0637 99.7083 28.4623 100.75 27.5 100.75C26.5378 100.75 25.9363 99.7083 26.4175 98.875Z" fill="#00FFBF"/>
<ellipse cx="4.5" cy="122" rx="2.5" ry="3" fill="#00FFBF"/>
<ellipse cx="14" cy="99.5" rx="2" ry="2.5" fill="#00FFBF"/>
<circle cx="16.5" cy="111.5" r="2.5" fill="#00FFBF"/>
<circle cx="28" cy="124" r="2" fill="#00FFBF"/>
<rect x="32" y="64" width="32" height="32" fill="#19C89C"/>
<path d="M36.8643 67.9566C37.0644 67.3407 37.9356 67.3407 38.1357 67.9566C38.2252 68.232 38.4819 68.4184 38.7714 68.4184C39.419 68.4184 39.6882 69.247 39.1643 69.6277C38.9301 69.7979 38.832 70.0996 38.9215 70.375C39.1216 70.9908 38.4168 71.503 37.8929 71.1223C37.6586 70.9521 37.3414 70.9521 37.1071 71.1223C36.5832 71.503 35.8784 70.9908 36.0785 70.375C36.168 70.0996 36.0699 69.7979 35.8357 69.6277C35.3118 69.247 35.581 68.4184 36.2286 68.4184C36.5181 68.4184 36.7748 68.232 36.8643 67.9566Z" fill="#00FFBF"/>
<path d="M44.2622 87.5546C44.4759 86.8147 45.5241 86.8147 45.7378 87.5546C45.8327 87.8832 46.1335 88.1094 46.4756 88.1094H46.5127C47.2811 88.1094 47.6249 89.0734 47.03 89.5596L46.8807 89.6816C46.6213 89.8936 46.5134 90.2399 46.6063 90.5617L46.6797 90.8156C46.885 91.5266 46.0504 92.0774 45.4774 91.6091C45.1996 91.382 44.8004 91.382 44.5226 91.6091C43.9496 92.0774 43.115 91.5266 43.3203 90.8156L43.3937 90.5617C43.4866 90.2399 43.3787 89.8936 43.1193 89.6816L42.97 89.5596C42.3751 89.0734 42.7189 88.1094 43.4873 88.1094H43.5244C43.8665 88.1094 44.1673 87.8832 44.2622 87.5546Z" fill="#00FFBF"/>
<path d="M58.4441 74.9962C58.6009 74.4332 59.3991 74.4332 59.5559 74.9962C59.6255 75.2458 59.8528 75.4184 60.1119 75.4184H60.1485C60.7307 75.4184 60.9969 76.1442 60.5528 76.5207L60.4046 76.6463C60.2127 76.8089 60.1331 77.0684 60.2005 77.3107L60.2713 77.5647C60.4202 78.0995 59.7877 78.5046 59.3643 78.1457C59.1541 77.9675 58.8459 77.9675 58.6357 78.1457C58.2123 78.5046 57.5798 78.0995 57.7287 77.5647L57.7995 77.3107C57.8669 77.0684 57.7873 76.8089 57.5954 76.6463L57.4472 76.5207C57.0031 76.1442 57.2693 75.4184 57.8515 75.4184H57.8881C58.1472 75.4184 58.3745 75.2458 58.4441 74.9962Z" fill="#00FFBF"/>
<path d="M37.4175 79.875C37.8986 79.0417 39.1014 79.0417 39.5825 79.875C40.0637 80.7083 39.4623 81.75 38.5 81.75C37.5378 81.75 36.9363 80.7083 37.4175 79.875Z" fill="#00FFBF"/>
<path d="M51.7171 70.8079C52.014 70.1224 52.986 70.1224 53.2829 70.8079C53.5268 71.3712 53.1138 72 52.5 72C51.8862 72 51.4732 71.3712 51.7171 70.8079Z" fill="#00FFBF"/>
<path d="M53.6019 84.2444C54.044 83.6319 54.956 83.6319 55.3981 84.2444C55.9267 84.9768 55.4033 86 54.5 86C53.5967 86 53.0733 84.9768 53.6019 84.2444Z" fill="#00FFBF"/>
<path d="M58.4175 66.875C58.8986 66.0417 60.1014 66.0417 60.5825 66.875C61.0637 67.7083 60.4623 68.75 59.5 68.75C58.5378 68.75 57.9363 67.7083 58.4175 66.875Z" fill="#00FFBF"/>
<ellipse cx="36.5" cy="90" rx="2.5" ry="3" fill="#00FFBF"/>
<circle cx="45.5" cy="67.5" r="2.5" fill="#00FFBF"/>
<ellipse cx="48" cy="79.5" rx="2" ry="2.5" fill="#00FFBF"/>
<ellipse cx="59.5" cy="92" rx="2.5" ry="2" fill="#00FFBF"/>
<rect x="32" y="96" width="32" height="32" fill="#19C89C"/>
<path d="M36.8531 100.275C37.0383 99.6238 37.9617 99.6238 38.1469 100.275C38.2291 100.564 38.4932 100.764 38.7938 100.764H38.8307C39.506 100.764 39.8111 101.609 39.2915 102.04L39.1427 102.164C38.917 102.351 38.8232 102.654 38.9034 102.936L38.9756 103.19C39.1527 103.813 38.4191 104.291 37.9209 103.877C37.6769 103.675 37.3231 103.675 37.0791 103.877C36.5809 104.291 35.8473 103.813 36.0244 103.19L36.0966 102.936C36.1768 102.654 36.083 102.351 35.8573 102.164L35.7085 102.04C35.1889 101.609 35.494 100.764 36.1693 100.764H36.2062C36.5068 100.764 36.7709 100.564 36.8531 100.275Z" fill="#00FFBF"/>
<path d="M44.2622 119.555C44.4759 118.815 45.5241 118.815 45.7378 119.555C45.8327 119.883 46.1335 120.109 46.4756 120.109H46.5127C47.2811 120.109 47.6249 121.073 47.03 121.56L46.8807 121.682C46.6213 121.894 46.5134 122.24 46.6063 122.562L46.6797 122.816C46.885 123.527 46.0504 124.077 45.4774 123.609C45.1996 123.382 44.8004 123.382 44.5226 123.609C43.9496 124.077 43.115 123.527 43.3203 122.816L43.3937 122.562C43.4866 122.24 43.3787 121.894 43.1193 121.682L42.97 121.56C42.3751 121.073 42.7189 120.109 43.4873 120.109H43.5244C43.8665 120.109 44.1673 119.883 44.2622 119.555Z" fill="#00FFBF"/>
<path d="M58.4551 107.677C58.6266 107.149 59.3734 107.149 59.5449 107.677C59.6216 107.913 59.8416 108.073 60.0898 108.073C60.6448 108.073 60.8756 108.783 60.4266 109.109C60.2258 109.255 60.1417 109.514 60.2184 109.75C60.39 110.278 59.7858 110.717 59.3368 110.391C59.136 110.245 58.864 110.245 58.6632 110.391C58.2142 110.717 57.61 110.278 57.7816 109.75C57.8583 109.514 57.7742 109.255 57.5734 109.109C57.1244 108.783 57.3552 108.073 57.9102 108.073C58.1584 108.073 58.3784 107.913 58.4551 107.677Z" fill="#00FFBF"/>
<path d="M37.4175 111.875C37.8986 111.042 39.1014 111.042 39.5825 111.875C40.0637 112.708 39.4623 113.75 38.5 113.75C37.5378 113.75 36.9363 112.708 37.4175 111.875Z" fill="#00FFBF"/>
<path d="M51.6262 103.523C51.9135 102.693 53.0865 102.693 53.3738 103.523C53.5819 104.123 53.1358 104.75 52.5 104.75C51.8642 104.75 51.4181 104.123 51.6262 103.523Z" fill="#00FFBF"/>
<path d="M53.6019 116.244C54.044 115.632 54.956 115.632 55.3981 116.244C55.9267 116.977 55.4033 118 54.5 118C53.5967 118 53.0733 116.977 53.6019 116.244Z" fill="#00FFBF"/>
<path d="M58.4175 98.875C58.8986 98.0417 60.1014 98.0417 60.5825 98.875C61.0637 99.7083 60.4623 100.75 59.5 100.75C58.5378 100.75 57.9363 99.7083 58.4175 98.875Z" fill="#00FFBF"/>
<ellipse cx="36.5" cy="122" rx="2.5" ry="3" fill="#00FFBF"/>
<circle cx="45.5" cy="99.5" r="2.5" fill="#00FFBF"/>
<ellipse cx="48" cy="111.5" rx="2" ry="2.5" fill="#00FFBF"/>
<ellipse cx="59.5" cy="124" rx="2.5" ry="2" fill="#00FFBF"/>
<rect x="64" width="32" height="32" fill="#19C89C"/>
<path d="M68.8531 4.27532C69.0383 3.62385 69.9617 3.62385 70.1469 4.27532C70.2291 4.56446 70.4932 4.76393 70.7938 4.76393H70.8307C71.506 4.76393 71.8111 5.60889 71.2915 6.04031L71.1427 6.16388C70.917 6.35125 70.8232 6.65415 70.9034 6.93629L70.9756 7.19025C71.1527 7.81313 70.4191 8.29104 69.9209 7.87737C69.6769 7.67474 69.3231 7.67474 69.0791 7.87737C68.5809 8.29104 67.8473 7.81313 68.0244 7.19025L68.0966 6.93629C68.1768 6.65415 68.083 6.35125 67.8573 6.16388L67.7085 6.04031C67.1889 5.60889 67.494 4.76393 68.1693 4.76393H68.2062C68.5068 4.76393 68.7709 4.56446 68.8531 4.27532Z" fill="#00FFBF"/>
<path d="M76.2622 23.5546C76.4759 22.8147 77.5241 22.8147 77.7378 23.5546C77.8327 23.8832 78.1335 24.1094 78.4756 24.1094H78.5127C79.2811 24.1094 79.6249 25.0734 79.03 25.5596L78.8807 25.6816C78.6213 25.8936 78.5134 26.2399 78.6063 26.5617L78.6797 26.8156C78.885 27.5266 78.0504 28.0774 77.4774 27.6091C77.1996 27.382 76.8004 27.382 76.5226 27.6091C75.9496 28.0774 75.115 27.5266 75.3203 26.8156L75.3937 26.5617C75.4866 26.2399 75.3787 25.8936 75.1193 25.6816L74.97 25.5596C74.3751 25.0734 74.7189 24.1094 75.4873 24.1094H75.5244C75.8665 24.1094 76.1673 23.8832 76.2622 23.5546Z" fill="#00FFBF"/>
<path d="M90.4551 11.6771C90.6266 11.1492 91.3734 11.1492 91.5449 11.6771C91.6216 11.9131 91.8416 12.0729 92.0898 12.0729C92.6448 12.0729 92.8756 12.7832 92.4266 13.1094C92.2258 13.2553 92.1417 13.5139 92.2184 13.75C92.39 14.2779 91.7858 14.7168 91.3368 14.3906C91.136 14.2447 90.864 14.2447 90.6632 14.3906C90.2142 14.7168 89.61 14.2779 89.7816 13.75C89.8583 13.5139 89.7742 13.2553 89.5734 13.1094C89.1244 12.7832 89.3552 12.0729 89.9102 12.0729C90.1584 12.0729 90.3784 11.9131 90.4551 11.6771Z" fill="#00FFBF"/>
<path d="M69.2736 16.549C69.7681 15.5211 71.2319 15.5211 71.7264 16.549C72.1611 17.4525 71.5027 18.5 70.5 18.5C69.4973 18.5 68.8389 17.4525 69.2736 16.549Z" fill="#00FFBF"/>
<path d="M83.6262 7.52252C83.9135 6.6931 85.0865 6.6931 85.3738 7.52252C85.5819 8.12328 85.1358 8.75 84.5 8.75C83.8642 8.75 83.4181 8.12328 83.6262 7.52252Z" fill="#00FFBF"/>
<path d="M85.6019 20.2444C86.044 19.6319 86.956 19.6319 87.3981 20.2444C87.9267 20.9768 87.4033 22 86.5 22C85.5967 22 85.0733 20.9768 85.6019 20.2444Z" fill="#00FFBF"/>
<path d="M89.9942 3.17757C90.3904 2.3198 91.6096 2.3198 92.0058 3.17757C92.3449 3.9117 91.8087 4.75 91 4.75C90.1913 4.75 89.6551 3.9117 89.9942 3.17757Z" fill="#00FFBF"/>
<ellipse cx="68.5" cy="26" rx="2.5" ry="3" fill="#00FFBF"/>
<circle cx="77.5" cy="3.5" r="2.5" fill="#00FFBF"/>
<ellipse cx="80" cy="15.5" rx="2" ry="2.5" fill="#00FFBF"/>
<circle cx="91" cy="28" r="2" fill="#00FFBF"/>
<rect x="64" y="32" width="32" height="32" fill="#19C89C"/>
<path d="M68.8531 36.2753C69.0383 35.6238 69.9617 35.6238 70.1469 36.2753C70.2291 36.5645 70.4932 36.7639 70.7938 36.7639H70.8307C71.506 36.7639 71.8111 37.6089 71.2915 38.0403L71.1427 38.1639C70.917 38.3513 70.8232 38.6541 70.9034 38.9363L70.9756 39.1903C71.1527 39.8131 70.4191 40.291 69.9209 39.8774C69.6769 39.6747 69.3231 39.6747 69.0791 39.8774C68.5809 40.291 67.8473 39.8131 68.0244 39.1903L68.0966 38.9363C68.1768 38.6541 68.083 38.3513 67.8573 38.1639L67.7085 38.0403C67.1889 37.6089 67.494 36.7639 68.1693 36.7639H68.2062C68.5068 36.7639 68.7709 36.5645 68.8531 36.2753Z" fill="#00FFBF"/>
<path d="M76.2622 55.5546C76.4759 54.8147 77.5241 54.8147 77.7378 55.5546C77.8327 55.8832 78.1335 56.1094 78.4756 56.1094H78.5127C79.2811 56.1094 79.6249 57.0734 79.03 57.5596L78.8807 57.6816C78.6213 57.8936 78.5134 58.2399 78.6063 58.5617L78.6797 58.8156C78.885 59.5266 78.0504 60.0774 77.4774 59.6091C77.1996 59.382 76.8004 59.382 76.5226 59.6091C75.9496 60.0774 75.115 59.5266 75.3203 58.8156L75.3937 58.5617C75.4866 58.2399 75.3787 57.8936 75.1193 57.6816L74.97 57.5596C74.3751 57.0734 74.7189 56.1094 75.4873 56.1094H75.5244C75.8665 56.1094 76.1673 55.8832 76.2622 55.5546Z" fill="#00FFBF"/>
<path d="M90.4551 43.6771C90.6266 43.1492 91.3734 43.1492 91.5449 43.6771C91.6216 43.9131 91.8416 44.0729 92.0898 44.0729C92.6448 44.0729 92.8756 44.7832 92.4266 45.1094C92.2258 45.2553 92.1417 45.5139 92.2184 45.75C92.39 46.2779 91.7858 46.7168 91.3368 46.3906C91.136 46.2447 90.864 46.2447 90.6632 46.3906C90.2142 46.7168 89.61 46.2779 89.7816 45.75C89.8583 45.5139 89.7742 45.2553 89.5734 45.1094C89.1244 44.7832 89.3552 44.0729 89.9102 44.0729C90.1584 44.0729 90.3784 43.9131 90.4551 43.6771Z" fill="#00FFBF"/>
<path d="M69.4175 47.875C69.8986 47.0417 71.1014 47.0417 71.5825 47.875C72.0637 48.7083 71.4623 49.75 70.5 49.75C69.5378 49.75 68.9363 48.7083 69.4175 47.875Z" fill="#00FFBF"/>
<path d="M83.6262 39.5225C83.9135 38.6931 85.0865 38.6931 85.3738 39.5225C85.5819 40.1233 85.1358 40.75 84.5 40.75C83.8642 40.75 83.4181 40.1233 83.6262 39.5225Z" fill="#00FFBF"/>
<path d="M85.6019 52.2444C86.044 51.6319 86.956 51.6319 87.3981 52.2444C87.9267 52.9768 87.4033 54 86.5 54C85.5967 54 85.0733 52.9768 85.6019 52.2444Z" fill="#00FFBF"/>
<path d="M89.8901 35.8836C90.2812 34.8675 91.7188 34.8675 92.1099 35.8836C92.4097 36.6626 91.8347 37.5 91 37.5C90.1653 37.5 89.5903 36.6626 89.8901 35.8836Z" fill="#00FFBF"/>
<ellipse cx="68.5" cy="58" rx="2.5" ry="3" fill="#00FFBF"/>
<circle cx="77.5" cy="35.5" r="2.5" fill="#00FFBF"/>
<ellipse cx="80" cy="47.5" rx="2" ry="2.5" fill="#00FFBF"/>
<circle cx="91" cy="60" r="2" fill="#00FFBF"/>
<rect x="95" width="33" height="32" fill="#19C89C"/>
<path d="M100.853 4.27532C101.038 3.62385 101.962 3.62385 102.147 4.27532C102.229 4.56446 102.493 4.76393 102.794 4.76393H102.831C103.506 4.76393 103.811 5.60889 103.292 6.04031L103.143 6.16388C102.917 6.35125 102.823 6.65415 102.903 6.93629L102.976 7.19025C103.153 7.81313 102.419 8.29104 101.921 7.87737C101.677 7.67474 101.323 7.67474 101.079 7.87737C100.581 8.29104 99.8473 7.81313 100.024 7.19025L100.097 6.93629C100.177 6.65415 100.083 6.35125 99.8573 6.16388L99.7085 6.04031C99.1889 5.60889 99.494 4.76393 100.169 4.76393H100.206C100.507 4.76393 100.771 4.56446 100.853 4.27532Z" fill="#00FFBF"/>
<path d="M107.671 23.8338C107.913 23.0058 109.087 23.0058 109.329 23.8338C109.436 24.2019 109.774 24.4549 110.157 24.4549H110.195C111.056 24.4549 111.438 25.5377 110.768 26.0787L110.619 26.1995C110.326 26.4361 110.204 26.8256 110.309 27.1871L110.384 27.4409C110.617 28.24 109.682 28.8638 109.034 28.3408C108.722 28.0893 108.278 28.0893 107.966 28.3408C107.318 28.8638 106.383 28.24 106.616 27.4409L106.691 27.1871C106.796 26.8256 106.674 26.4361 106.381 26.1995L106.232 26.0787C105.562 25.5377 105.944 24.4549 106.805 24.4549H106.843C107.226 24.4549 107.564 24.2019 107.671 23.8338Z" fill="#00FFBF"/>
<path d="M122.455 11.6771C122.627 11.1492 123.373 11.1492 123.545 11.6771C123.622 11.9131 123.842 12.0729 124.09 12.0729C124.645 12.0729 124.876 12.7832 124.427 13.1094C124.226 13.2553 124.142 13.5139 124.218 13.75C124.39 14.2779 123.786 14.7168 123.337 14.3906C123.136 14.2447 122.864 14.2447 122.663 14.3906C122.214 14.7168 121.61 14.2779 121.782 13.75C121.858 13.5139 121.774 13.2553 121.573 13.1094C121.124 12.7832 121.355 12.0729 121.91 12.0729C122.158 12.0729 122.378 11.9131 122.455 11.6771Z" fill="#00FFBF"/>
<path d="M100.274 16.549C100.768 15.5211 102.232 15.5211 102.726 16.549C103.161 17.4525 102.503 18.5 101.5 18.5C100.497 18.5 99.8389 17.4525 100.274 16.549Z" fill="#00FFBF"/>
<path d="M115.626 7.52252C115.913 6.6931 117.087 6.6931 117.374 7.52252C117.582 8.12328 117.136 8.75 116.5 8.75C115.864 8.75 115.418 8.12328 115.626 7.52252Z" fill="#00FFBF"/>
<path d="M117.602 20.2444C118.044 19.6319 118.956 19.6319 119.398 20.2444C119.927 20.9768 119.403 22 118.5 22C117.597 22 117.073 20.9768 117.602 20.2444Z" fill="#00FFBF"/>
<path d="M121.602 3.24438C122.044 2.63187 122.956 2.63187 123.398 3.24438C123.927 3.97684 123.403 5 122.5 5C121.597 5 121.073 3.97684 121.602 3.24438Z" fill="#00FFBF"/>
<ellipse cx="100.5" cy="26" rx="2.5" ry="3" fill="#00FFBF"/>
<circle cx="109.5" cy="3.5" r="2.5" fill="#00FFBF"/>
<circle cx="111.5" cy="15.5" r="2.5" fill="#00FFBF"/>
<circle cx="123" cy="28" r="2" fill="#00FFBF"/>
<rect x="95" y="32" width="33" height="32" fill="#19C89C"/>
<path d="M100.853 36.2753C101.038 35.6238 101.962 35.6238 102.147 36.2753C102.229 36.5645 102.493 36.7639 102.794 36.7639H102.831C103.506 36.7639 103.811 37.6089 103.292 38.0403L103.143 38.1639C102.917 38.3513 102.823 38.6541 102.903 38.9363L102.976 39.1903C103.153 39.8131 102.419 40.291 101.921 39.8774C101.677 39.6747 101.323 39.6747 101.079 39.8774C100.581 40.291 99.8473 39.8131 100.024 39.1903L100.097 38.9363C100.177 38.6541 100.083 38.3513 99.8573 38.1639L99.7085 38.0403C99.1889 37.6089 99.494 36.7639 100.169 36.7639H100.206C100.507 36.7639 100.771 36.5645 100.853 36.2753Z" fill="#00FFBF"/>
<path d="M107.683 55.5156C107.94 54.7238 109.06 54.7238 109.317 55.5156C109.432 55.8697 109.762 56.1094 110.135 56.1094C110.967 56.1094 111.313 57.1748 110.64 57.6641C110.339 57.883 110.213 58.2709 110.328 58.625C110.585 59.4168 109.679 60.0752 109.005 59.5859C108.704 59.367 108.296 59.367 107.995 59.5859C107.321 60.0752 106.415 59.4168 106.672 58.625C106.787 58.2709 106.661 57.883 106.36 57.6641C105.687 57.1748 106.033 56.1094 106.865 56.1094C107.238 56.1094 107.568 55.8697 107.683 55.5156Z" fill="#00FFBF"/>
<path d="M122.455 43.6771C122.627 43.1492 123.373 43.1492 123.545 43.6771C123.622 43.9131 123.842 44.0729 124.09 44.0729C124.645 44.0729 124.876 44.7832 124.427 45.1094C124.226 45.2553 124.142 45.5139 124.218 45.75C124.39 46.2779 123.786 46.7168 123.337 46.3906C123.136 46.2447 122.864 46.2447 122.663 46.3906C122.214 46.7168 121.61 46.2779 121.782 45.75C121.858 45.5139 121.774 45.2553 121.573 45.1094C121.124 44.7832 121.355 44.0729 121.91 44.0729C122.158 44.0729 122.378 43.9131 122.455 43.6771Z" fill="#00FFBF"/>
<path d="M100.274 48.549C100.768 47.5211 102.232 47.5211 102.726 48.549C103.161 49.4525 102.503 50.5 101.5 50.5C100.497 50.5 99.8389 49.4525 100.274 48.549Z" fill="#00FFBF"/>
<path d="M115.626 39.5225C115.913 38.6931 117.087 38.6931 117.374 39.5225C117.582 40.1233 117.136 40.75 116.5 40.75C115.864 40.75 115.418 40.1233 115.626 39.5225Z" fill="#00FFBF"/>
<path d="M117.602 52.2444C118.044 51.6319 118.956 51.6319 119.398 52.2444C119.927 52.9768 119.403 54 118.5 54C117.597 54 117.073 52.9768 117.602 52.2444Z" fill="#00FFBF"/>
<path d="M121.274 35.549C121.768 34.5211 123.232 34.5211 123.726 35.549C124.161 36.4525 123.503 37.5 122.5 37.5C121.497 37.5 120.839 36.4525 121.274 35.549Z" fill="#00FFBF"/>
<ellipse cx="100.5" cy="58" rx="2.5" ry="3" fill="#00FFBF"/>
<circle cx="109.5" cy="35.5" r="2.5" fill="#00FFBF"/>
<circle cx="111.5" cy="47.5" r="2.5" fill="#00FFBF"/>
<circle cx="123" cy="60" r="2" fill="#00FFBF"/>
<rect x="64" y="64" width="32" height="32" fill="#19C89C"/>
<path d="M68.8643 67.9566C69.0644 67.3407 69.9356 67.3407 70.1357 67.9566C70.2252 68.232 70.4819 68.4184 70.7714 68.4184C71.419 68.4184 71.6882 69.247 71.1643 69.6277C70.9301 69.7979 70.832 70.0996 70.9215 70.375C71.1216 70.9908 70.4168 71.503 69.8929 71.1223C69.6586 70.9521 69.3414 70.9521 69.1071 71.1223C68.5832 71.503 67.8784 70.9908 68.0785 70.375C68.168 70.0996 68.0699 69.7979 67.8357 69.6277C67.3118 69.247 67.581 68.4184 68.2286 68.4184C68.5181 68.4184 68.7748 68.232 68.8643 67.9566Z" fill="#00FFBF"/>
<path d="M76.2622 87.5546C76.4759 86.8147 77.5241 86.8147 77.7378 87.5546C77.8327 87.8832 78.1335 88.1094 78.4756 88.1094H78.5127C79.2811 88.1094 79.6249 89.0734 79.03 89.5596L78.8807 89.6816C78.6213 89.8936 78.5134 90.2399 78.6063 90.5617L78.6797 90.8156C78.885 91.5266 78.0504 92.0774 77.4774 91.6091C77.1996 91.382 76.8004 91.382 76.5226 91.6091C75.9496 92.0774 75.115 91.5266 75.3203 90.8156L75.3937 90.5617C75.4866 90.2399 75.3787 89.8936 75.1193 89.6816L74.97 89.5596C74.3751 89.0734 74.7189 88.1094 75.4873 88.1094H75.5244C75.8665 88.1094 76.1673 87.8832 76.2622 87.5546Z" fill="#00FFBF"/>
<path d="M90.4441 74.9962C90.6009 74.4332 91.3991 74.4332 91.5559 74.9962C91.6255 75.2458 91.8528 75.4184 92.1119 75.4184H92.1485C92.7307 75.4184 92.9969 76.1442 92.5528 76.5207L92.4046 76.6463C92.2127 76.8089 92.1331 77.0684 92.2005 77.3107L92.2713 77.5647C92.4202 78.0995 91.7877 78.5046 91.3643 78.1457C91.1541 77.9675 90.8459 77.9675 90.6357 78.1457C90.2123 78.5046 89.5798 78.0995 89.7287 77.5647L89.7995 77.3107C89.8669 77.0684 89.7873 76.8089 89.5954 76.6463L89.4472 76.5207C89.0031 76.1442 89.2693 75.4184 89.8515 75.4184H89.8881C90.1472 75.4184 90.3745 75.2458 90.4441 74.9962Z" fill="#00FFBF"/>
<path d="M69.4175 79.875C69.8986 79.0417 71.1014 79.0417 71.5825 79.875C72.0637 80.7083 71.4623 81.75 70.5 81.75C69.5378 81.75 68.9363 80.7083 69.4175 79.875Z" fill="#00FFBF"/>
<path d="M83.7171 70.8079C84.014 70.1224 84.986 70.1224 85.2829 70.8079C85.5268 71.3712 85.1138 72 84.5 72C83.8862 72 83.4732 71.3712 83.7171 70.8079Z" fill="#00FFBF"/>
<path d="M85.6019 84.2444C86.044 83.6319 86.956 83.6319 87.3981 84.2444C87.9267 84.9768 87.4033 86 86.5 86C85.5967 86 85.0733 84.9768 85.6019 84.2444Z" fill="#00FFBF"/>
<path d="M90.4175 66.875C90.8986 66.0417 92.1014 66.0417 92.5825 66.875C93.0637 67.7083 92.4623 68.75 91.5 68.75C90.5378 68.75 89.9363 67.7083 90.4175 66.875Z" fill="#00FFBF"/>
<ellipse cx="68.5" cy="90" rx="2.5" ry="3" fill="#00FFBF"/>
<circle cx="77.5" cy="67.5" r="2.5" fill="#00FFBF"/>
<ellipse cx="80" cy="79.5" rx="2" ry="2.5" fill="#00FFBF"/>
<ellipse cx="91.5" cy="92" rx="2.5" ry="2" fill="#00FFBF"/>
<rect x="64" y="96" width="32" height="32" fill="#19C89C"/>
<path d="M68.8531 100.275C69.0383 99.6238 69.9617 99.6238 70.1469 100.275C70.2291 100.564 70.4932 100.764 70.7938 100.764H70.8307C71.506 100.764 71.8111 101.609 71.2915 102.04L71.1427 102.164C70.917 102.351 70.8232 102.654 70.9034 102.936L70.9756 103.19C71.1527 103.813 70.4191 104.291 69.9209 103.877C69.6769 103.675 69.3231 103.675 69.0791 103.877C68.5809 104.291 67.8473 103.813 68.0244 103.19L68.0966 102.936C68.1768 102.654 68.083 102.351 67.8573 102.164L67.7085 102.04C67.1889 101.609 67.494 100.764 68.1693 100.764H68.2062C68.5068 100.764 68.7709 100.564 68.8531 100.275Z" fill="#00FFBF"/>
<path d="M76.2622 119.555C76.4759 118.815 77.5241 118.815 77.7378 119.555C77.8327 119.883 78.1335 120.109 78.4756 120.109H78.5127C79.2811 120.109 79.6249 121.073 79.03 121.56L78.8807 121.682C78.6213 121.894 78.5134 122.24 78.6063 122.562L78.6797 122.816C78.885 123.527 78.0504 124.077 77.4774 123.609C77.1996 123.382 76.8004 123.382 76.5226 123.609C75.9496 124.077 75.115 123.527 75.3203 122.816L75.3937 122.562C75.4866 122.24 75.3787 121.894 75.1193 121.682L74.97 121.56C74.3751 121.073 74.7189 120.109 75.4873 120.109H75.5244C75.8665 120.109 76.1673 119.883 76.2622 119.555Z" fill="#00FFBF"/>
<path d="M90.4551 107.677C90.6266 107.149 91.3734 107.149 91.5449 107.677C91.6216 107.913 91.8416 108.073 92.0898 108.073C92.6448 108.073 92.8756 108.783 92.4266 109.109C92.2258 109.255 92.1417 109.514 92.2184 109.75C92.39 110.278 91.7858 110.717 91.3368 110.391C91.136 110.245 90.864 110.245 90.6632 110.391C90.2142 110.717 89.61 110.278 89.7816 109.75C89.8583 109.514 89.7742 109.255 89.5734 109.109C89.1244 108.783 89.3552 108.073 89.9102 108.073C90.1584 108.073 90.3784 107.913 90.4551 107.677Z" fill="#00FFBF"/>
<path d="M69.4175 111.875C69.8986 111.042 71.1014 111.042 71.5825 111.875C72.0637 112.708 71.4623 113.75 70.5 113.75C69.5378 113.75 68.9363 112.708 69.4175 111.875Z" fill="#00FFBF"/>
<path d="M83.6262 103.523C83.9135 102.693 85.0865 102.693 85.3738 103.523C85.5819 104.123 85.1358 104.75 84.5 104.75C83.8642 104.75 83.4181 104.123 83.6262 103.523Z" fill="#00FFBF"/>
<path d="M85.6019 116.244C86.044 115.632 86.956 115.632 87.3981 116.244C87.9267 116.977 87.4033 118 86.5 118C85.5967 118 85.0733 116.977 85.6019 116.244Z" fill="#00FFBF"/>
<path d="M90.4175 98.875C90.8986 98.0417 92.1014 98.0417 92.5825 98.875C93.0637 99.7083 92.4623 100.75 91.5 100.75C90.5378 100.75 89.9363 99.7083 90.4175 98.875Z" fill="#00FFBF"/>
<ellipse cx="68.5" cy="122" rx="2.5" ry="3" fill="#00FFBF"/>
<circle cx="77.5" cy="99.5" r="2.5" fill="#00FFBF"/>
<ellipse cx="80" cy="111.5" rx="2" ry="2.5" fill="#00FFBF"/>
<ellipse cx="91.5" cy="124" rx="2.5" ry="2" fill="#00FFBF"/>
<rect x="96" y="64" width="32" height="32" fill="#19C89C"/>
<path d="M100.853 68.2753C101.038 67.6238 101.962 67.6238 102.147 68.2753C102.229 68.5645 102.493 68.7639 102.794 68.7639H102.831C103.506 68.7639 103.811 69.6089 103.292 70.0403L103.143 70.1639C102.917 70.3513 102.823 70.6541 102.903 70.9363L102.976 71.1903C103.153 71.8131 102.419 72.291 101.921 71.8774C101.677 71.6747 101.323 71.6747 101.079 71.8774C100.581 72.291 99.8473 71.8131 100.024 71.1903L100.097 70.9363C100.177 70.6541 100.083 70.3513 99.8573 70.1639L99.7085 70.0403C99.1889 69.6089 99.494 68.7639 100.169 68.7639H100.206C100.507 68.7639 100.771 68.5645 100.853 68.2753Z" fill="#00FFBF"/>
<path d="M108.262 87.5546C108.476 86.8147 109.524 86.8147 109.738 87.5546C109.833 87.8832 110.134 88.1094 110.476 88.1094H110.513C111.281 88.1094 111.625 89.0734 111.03 89.5596L110.881 89.6816C110.621 89.8936 110.513 90.2399 110.606 90.5617L110.68 90.8156C110.885 91.5266 110.05 92.0774 109.477 91.6091C109.2 91.382 108.8 91.382 108.523 91.6091C107.95 92.0774 107.115 91.5266 107.32 90.8156L107.394 90.5617C107.487 90.2399 107.379 89.8936 107.119 89.6816L106.97 89.5596C106.375 89.0734 106.719 88.1094 107.487 88.1094H107.524C107.866 88.1094 108.167 87.8832 108.262 87.5546Z" fill="#00FFBF"/>
<path d="M122.444 74.9962C122.601 74.4332 123.399 74.4332 123.556 74.9962C123.625 75.2458 123.853 75.4184 124.112 75.4184H124.148C124.731 75.4184 124.997 76.1442 124.553 76.5207L124.405 76.6463C124.213 76.8089 124.133 77.0684 124.201 77.3107L124.271 77.5647C124.42 78.0995 123.788 78.5046 123.364 78.1457C123.154 77.9675 122.846 77.9675 122.636 78.1457C122.212 78.5046 121.58 78.0995 121.729 77.5647L121.799 77.3107C121.867 77.0684 121.787 76.8089 121.595 76.6463L121.447 76.5207C121.003 76.1442 121.269 75.4184 121.852 75.4184H121.888C122.147 75.4184 122.375 75.2458 122.444 74.9962Z" fill="#00FFBF"/>
<path d="M100.882 79.6144C101.423 78.8333 102.577 78.8333 103.118 79.6144C103.744 80.5168 103.098 81.75 102 81.75C100.902 81.75 100.256 80.5168 100.882 79.6144Z" fill="#00FFBF"/>
<path d="M115.717 70.8079C116.014 70.1224 116.986 70.1224 117.283 70.8079C117.527 71.3712 117.114 72 116.5 72C115.886 72 115.473 71.3712 115.717 70.8079Z" fill="#00FFBF"/>
<path d="M117.602 84.2444C118.044 83.6319 118.956 83.6319 119.398 84.2444C119.927 84.9768 119.403 86 118.5 86C117.597 86 117.073 84.9768 117.602 84.2444Z" fill="#00FFBF"/>
<path d="M121.417 66.875C121.899 66.0417 123.101 66.0417 123.583 66.875C124.064 67.7083 123.462 68.75 122.5 68.75C121.538 68.75 120.936 67.7083 121.417 66.875Z" fill="#00FFBF"/>
<ellipse cx="100.5" cy="90" rx="2.5" ry="3" fill="#00FFBF"/>
<circle cx="109.5" cy="67.5" r="2.5" fill="#00FFBF"/>
<ellipse cx="112" cy="79.5" rx="2" ry="2.5" fill="#00FFBF"/>
<circle cx="123" cy="92" r="2" fill="#00FFBF"/>
<rect x="96" y="96" width="32" height="32" fill="#19C89C"/>
<path d="M100.853 100.275C101.038 99.6238 101.962 99.6238 102.147 100.275C102.229 100.564 102.493 100.764 102.794 100.764H102.831C103.506 100.764 103.811 101.609 103.292 102.04L103.143 102.164C102.917 102.351 102.823 102.654 102.903 102.936L102.976 103.19C103.153 103.813 102.419 104.291 101.921 103.877C101.677 103.675 101.323 103.675 101.079 103.877C100.581 104.291 99.8473 103.813 100.024 103.19L100.097 102.936C100.177 102.654 100.083 102.351 99.8573 102.164L99.7085 102.04C99.1889 101.609 99.494 100.764 100.169 100.764H100.206C100.507 100.764 100.771 100.564 100.853 100.275Z" fill="#00FFBF"/>
<path d="M108.262 119.555C108.476 118.815 109.524 118.815 109.738 119.555C109.833 119.883 110.134 120.109 110.476 120.109H110.513C111.281 120.109 111.625 121.073 111.03 121.56L110.881 121.682C110.621 121.894 110.513 122.24 110.606 122.562L110.68 122.816C110.885 123.527 110.05 124.077 109.477 123.609C109.2 123.382 108.8 123.382 108.523 123.609C107.95 124.077 107.115 123.527 107.32 122.816L107.394 122.562C107.487 122.24 107.379 121.894 107.119 121.682L106.97 121.56C106.375 121.073 106.719 120.109 107.487 120.109H107.524C107.866 120.109 108.167 119.883 108.262 119.555Z" fill="#00FFBF"/>
<path d="M122.455 107.677C122.627 107.149 123.373 107.149 123.545 107.677C123.622 107.913 123.842 108.073 124.09 108.073C124.645 108.073 124.876 108.783 124.427 109.109C124.226 109.255 124.142 109.514 124.218 109.75C124.39 110.278 123.786 110.717 123.337 110.391C123.136 110.245 122.864 110.245 122.663 110.391C122.214 110.717 121.61 110.278 121.782 109.75C121.858 109.514 121.774 109.255 121.573 109.109C121.124 108.783 121.355 108.073 121.91 108.073C122.158 108.073 122.378 107.913 122.455 107.677Z" fill="#00FFBF"/>
<path d="M100.882 111.614C101.423 110.833 102.577 110.833 103.118 111.614C103.744 112.517 103.098 113.75 102 113.75C100.902 113.75 100.256 112.517 100.882 111.614Z" fill="#00FFBF"/>
<path d="M115.626 103.523C115.913 102.693 117.087 102.693 117.374 103.523C117.582 104.123 117.136 104.75 116.5 104.75C115.864 104.75 115.418 104.123 115.626 103.523Z" fill="#00FFBF"/>
<path d="M117.602 116.244C118.044 115.632 118.956 115.632 119.398 116.244C119.927 116.977 119.403 118 118.5 118C117.597 118 117.073 116.977 117.602 116.244Z" fill="#00FFBF"/>
<path d="M121.417 98.875C121.899 98.0417 123.101 98.0417 123.583 98.875C124.064 99.7083 123.462 100.75 122.5 100.75C121.538 100.75 120.936 99.7083 121.417 98.875Z" fill="#00FFBF"/>
<ellipse cx="100.5" cy="122" rx="2.5" ry="3" fill="#00FFBF"/>
<circle cx="109.5" cy="99.5" r="2.5" fill="#00FFBF"/>
<ellipse cx="112" cy="111.5" rx="2" ry="2.5" fill="#00FFBF"/>
<circle cx="123" cy="124" r="2" fill="#00FFBF"/>
<rect width="32" height="32" fill="#19C89C"/>
<path d="M4.85311 4.27532C5.03833 3.62385 5.96167 3.62385 6.14689 4.27532C6.22909 4.56446 6.49318 4.76393 6.79377 4.76393H6.83068C7.50602 4.76393 7.81109 5.60889 7.29151 6.04031L7.1427 6.16388C6.91703 6.35125 6.8232 6.65415 6.90341 6.93629L6.97561 7.19025C7.1527 7.81313 6.41912 8.29104 5.92092 7.87737C5.67688 7.67474 5.32312 7.67474 5.07908 7.87737C4.58088 8.29104 3.8473 7.81313 4.02439 7.19025L4.09659 6.93629C4.1768 6.65415 4.08297 6.35125 3.8573 6.16388L3.70849 6.04031C3.18891 5.60889 3.49398 4.76393 4.16932 4.76393H4.20623C4.50682 4.76393 4.77091 4.56446 4.85311 4.27532Z" fill="#00FFBF"/>
<path d="M12.2622 23.5546C12.4759 22.8147 13.5241 22.8147 13.7378 23.5546C13.8327 23.8832 14.1335 24.1094 14.4756 24.1094H14.5127C15.2811 24.1094 15.6249 25.0734 15.03 25.5596L14.8807 25.6816C14.6213 25.8936 14.5134 26.2399 14.6063 26.5617L14.6797 26.8156C14.885 27.5266 14.0504 28.0774 13.4774 27.6091C13.1996 27.382 12.8004 27.382 12.5226 27.6091C11.9496 28.0774 11.115 27.5266 11.3203 26.8156L11.3937 26.5617C11.4866 26.2399 11.3787 25.8936 11.1193 25.6816L10.97 25.5596C10.3751 25.0734 10.7189 24.1094 11.4873 24.1094H11.5244C11.8665 24.1094 12.1673 23.8832 12.2622 23.5546Z" fill="#00FFBF"/>
<path d="M26.4551 11.6771C26.6266 11.1492 27.3734 11.1492 27.5449 11.6771C27.6216 11.9131 27.8416 12.0729 28.0898 12.0729C28.6448 12.0729 28.8756 12.7832 28.4266 13.1094C28.2258 13.2553 28.1417 13.5139 28.2184 13.75C28.39 14.2779 27.7858 14.7168 27.3368 14.3906C27.136 14.2447 26.864 14.2447 26.6632 14.3906C26.2142 14.7168 25.61 14.2779 25.7816 13.75C25.8583 13.5139 25.7742 13.2553 25.5734 13.1094C25.1244 12.7832 25.3552 12.0729 25.9102 12.0729C26.1584 12.0729 26.3784 11.9131 26.4551 11.6771Z" fill="#00FFBF"/>
<path d="M5.41747 15.875C5.89859 15.0417 7.10141 15.0417 7.58253 15.875C8.06366 16.7083 7.46225 17.75 6.5 17.75C5.53775 17.75 4.93634 16.7083 5.41747 15.875Z" fill="#00FFBF"/>
<path d="M19.6262 7.52252C19.9135 6.6931 21.0865 6.6931 21.3738 7.52252C21.5819 8.12328 21.1358 8.75 20.5 8.75C19.8642 8.75 19.4181 8.12328 19.6262 7.52252Z" fill="#00FFBF"/>
<path d="M22.134 20.5C22.5189 19.8333 23.4811 19.8333 23.866 20.5C24.2509 21.1667 23.7698 22 23 22C22.2302 22 21.7491 21.1667 22.134 20.5Z" fill="#00FFBF"/>
<path d="M26.4175 2.875C26.8986 2.04167 28.1014 2.04167 28.5825 2.875C29.0637 3.70833 28.4623 4.75 27.5 4.75C26.5378 4.75 25.9363 3.70833 26.4175 2.875Z" fill="#00FFBF"/>
<ellipse cx="4.5" cy="26" rx="2.5" ry="3" fill="#00FFBF"/>
<circle cx="13.5" cy="3.5" r="2.5" fill="#00FFBF"/>
<ellipse cx="16" cy="15.5" rx="2" ry="2.5" fill="#00FFBF"/>
<circle cx="28" cy="28" r="2" fill="#00FFBF"/>
<rect y="32" width="32" height="32" fill="#19C89C"/>
<path d="M4.85311 36.2753C5.03833 35.6238 5.96167 35.6238 6.14689 36.2753C6.22909 36.5645 6.49318 36.7639 6.79377 36.7639H6.83068C7.50602 36.7639 7.81109 37.6089 7.29151 38.0403L7.1427 38.1639C6.91703 38.3513 6.8232 38.6541 6.90341 38.9363L6.97561 39.1903C7.1527 39.8131 6.41912 40.291 5.92092 39.8774C5.67688 39.6747 5.32312 39.6747 5.07908 39.8774C4.58088 40.291 3.8473 39.8131 4.02439 39.1903L4.09659 38.9363C4.1768 38.6541 4.08297 38.3513 3.8573 38.1639L3.70849 38.0403C3.18891 37.6089 3.49398 36.7639 4.16932 36.7639H4.20623C4.50682 36.7639 4.77091 36.5645 4.85311 36.2753Z" fill="#00FFBF"/>
<path d="M12.2622 55.5546C12.4759 54.8147 13.5241 54.8147 13.7378 55.5546C13.8327 55.8832 14.1335 56.1094 14.4756 56.1094H14.5127C15.2811 56.1094 15.6249 57.0734 15.03 57.5596L14.8807 57.6816C14.6213 57.8936 14.5134 58.2399 14.6063 58.5617L14.6797 58.8156C14.885 59.5266 14.0504 60.0774 13.4774 59.6091C13.1996 59.382 12.8004 59.382 12.5226 59.6091C11.9496 60.0774 11.115 59.5266 11.3203 58.8156L11.3937 58.5617C11.4866 58.2399 11.3787 57.8936 11.1193 57.6816L10.97 57.5596C10.3751 57.0734 10.7189 56.1094 11.4873 56.1094H11.5244C11.8665 56.1094 12.1673 55.8832 12.2622 55.5546Z" fill="#00FFBF"/>
<path d="M26.4551 43.6771C26.6266 43.1492 27.3734 43.1492 27.5449 43.6771C27.6216 43.9131 27.8416 44.0729 28.0898 44.0729C28.6448 44.0729 28.8756 44.7832 28.4266 45.1094C28.2258 45.2553 28.1417 45.5139 28.2184 45.75C28.39 46.2779 27.7858 46.7168 27.3368 46.3906C27.136 46.2447 26.864 46.2447 26.6632 46.3906C26.2142 46.7168 25.61 46.2779 25.7816 45.75C25.8583 45.5139 25.7742 45.2553 25.5734 45.1094C25.1244 44.7832 25.3552 44.0729 25.9102 44.0729C26.1584 44.0729 26.3784 43.9131 26.4551 43.6771Z" fill="#00FFBF"/>
<path d="M5.41747 47.875C5.89859 47.0417 7.10141 47.0417 7.58253 47.875C8.06366 48.7083 7.46225 49.75 6.5 49.75C5.53775 49.75 4.93634 48.7083 5.41747 47.875Z" fill="#00FFBF"/>
<path d="M19.6262 39.5225C19.9135 38.6931 21.0865 38.6931 21.3738 39.5225C21.5819 40.1233 21.1358 40.75 20.5 40.75C19.8642 40.75 19.4181 40.1233 19.6262 39.5225Z" fill="#00FFBF"/>
<path d="M22.134 52.5C22.5189 51.8333 23.4811 51.8333 23.866 52.5C24.2509 53.1667 23.7698 54 23 54C22.2302 54 21.7491 53.1667 22.134 52.5Z" fill="#00FFBF"/>
<path d="M26.2736 35.549C26.7681 34.5211 28.2319 34.5211 28.7264 35.549C29.1611 36.4525 28.5027 37.5 27.5 37.5C26.4973 37.5 25.8389 36.4525 26.2736 35.549Z" fill="#00FFBF"/>
<ellipse cx="4.5" cy="58" rx="2.5" ry="3" fill="#00FFBF"/>
<circle cx="13.5" cy="35.5" r="2.5" fill="#00FFBF"/>
<ellipse cx="16" cy="47.5" rx="2" ry="2.5" fill="#00FFBF"/>
<circle cx="28" cy="60" r="2" fill="#00FFBF"/>
<rect x="32" width="32" height="32" fill="#19C89C"/>
<path d="M36.8531 4.27532C37.0383 3.62385 37.9617 3.62385 38.1469 4.27532C38.2291 4.56446 38.4932 4.76393 38.7938 4.76393H38.8307C39.506 4.76393 39.8111 5.60889 39.2915 6.04031L39.1427 6.16388C38.917 6.35125 38.8232 6.65415 38.9034 6.93629L38.9756 7.19025C39.1527 7.81313 38.4191 8.29104 37.9209 7.87737C37.6769 7.67474 37.3231 7.67474 37.0791 7.87737C36.5809 8.29104 35.8473 7.81313 36.0244 7.19025L36.0966 6.93629C36.1768 6.65415 36.083 6.35125 35.8573 6.16388L35.7085 6.04031C35.1889 5.60889 35.494 4.76393 36.1693 4.76393H36.2062C36.5068 4.76393 36.7709 4.56446 36.8531 4.27532Z" fill="#00FFBF"/>
<path d="M44.2622 23.5546C44.4759 22.8147 45.5241 22.8147 45.7378 23.5546C45.8327 23.8832 46.1335 24.1094 46.4756 24.1094H46.5127C47.2811 24.1094 47.6249 25.0734 47.03 25.5596L46.8807 25.6816C46.6213 25.8936 46.5134 26.2399 46.6063 26.5617L46.6797 26.8156C46.885 27.5266 46.0504 28.0774 45.4774 27.6091C45.1996 27.382 44.8004 27.382 44.5226 27.6091C43.9496 28.0774 43.115 27.5266 43.3203 26.8156L43.3937 26.5617C43.4866 26.2399 43.3787 25.8936 43.1193 25.6816L42.97 25.5596C42.3751 25.0734 42.7189 24.1094 43.4873 24.1094H43.5244C43.8665 24.1094 44.1673 23.8832 44.2622 23.5546Z" fill="#00FFBF"/>
<path d="M58.4551 11.6771C58.6266 11.1492 59.3734 11.1492 59.5449 11.6771C59.6216 11.9131 59.8416 12.0729 60.0898 12.0729C60.6448 12.0729 60.8756 12.7832 60.4266 13.1094C60.2258 13.2553 60.1417 13.5139 60.2184 13.75C60.39 14.2779 59.7858 14.7168 59.3368 14.3906C59.136 14.2447 58.864 14.2447 58.6632 14.3906C58.2142 14.7168 57.61 14.2779 57.7816 13.75C57.8583 13.5139 57.7742 13.2553 57.5734 13.1094C57.1244 12.7832 57.3552 12.0729 57.9102 12.0729C58.1584 12.0729 58.3784 11.9131 58.4551 11.6771Z" fill="#00FFBF"/>
<path d="M36.701 16.25C37.2783 15.25 38.7217 15.25 39.299 16.25C39.8764 17.25 39.1547 18.5 38 18.5C36.8453 18.5 36.1236 17.25 36.701 16.25Z" fill="#00FFBF"/>
<path d="M51.6262 7.52252C51.9135 6.6931 53.0865 6.6931 53.3738 7.52252C53.5819 8.12328 53.1358 8.75 52.5 8.75C51.8642 8.75 51.4181 8.12328 51.6262 7.52252Z" fill="#00FFBF"/>
<path d="M53.6019 20.2444C54.044 19.6319 54.956 19.6319 55.3981 20.2444C55.9267 20.9768 55.4033 22 54.5 22C53.5967 22 53.0733 20.9768 53.6019 20.2444Z" fill="#00FFBF"/>
<path d="M57.9942 3.17757C58.3904 2.3198 59.6096 2.3198 60.0058 3.17757C60.3449 3.9117 59.8087 4.75 59 4.75C58.1913 4.75 57.6551 3.9117 57.9942 3.17757Z" fill="#00FFBF"/>
<ellipse cx="36.5" cy="26" rx="2.5" ry="3" fill="#00FFBF"/>
<circle cx="45.5" cy="3.5" r="2.5" fill="#00FFBF"/>
<circle cx="47.5" cy="15.5" r="2.5" fill="#00FFBF"/>
<circle cx="59" cy="28" r="2" fill="#00FFBF"/>
<rect x="32" y="32" width="32" height="32" fill="#19C89C"/>
<path d="M36.8531 36.2753C37.0383 35.6238 37.9617 35.6238 38.1469 36.2753C38.2291 36.5645 38.4932 36.7639 38.7938 36.7639H38.8307C39.506 36.7639 39.8111 37.6089 39.2915 38.0403L39.1427 38.1639C38.917 38.3513 38.8232 38.6541 38.9034 38.9363L38.9756 39.1903C39.1527 39.8131 38.4191 40.291 37.9209 39.8774C37.6769 39.6747 37.3231 39.6747 37.0791 39.8774C36.5809 40.291 35.8473 39.8131 36.0244 39.1903L36.0966 38.9363C36.1768 38.6541 36.083 38.3513 35.8573 38.1639L35.7085 38.0403C35.1889 37.6089 35.494 36.7639 36.1693 36.7639H36.2062C36.5068 36.7639 36.7709 36.5645 36.8531 36.2753Z" fill="#00FFBF"/>
<path d="M44.2622 55.5546C44.4759 54.8147 45.5241 54.8147 45.7378 55.5546C45.8327 55.8832 46.1335 56.1094 46.4756 56.1094H46.5127C47.2811 56.1094 47.6249 57.0734 47.03 57.5596L46.8807 57.6816C46.6213 57.8936 46.5134 58.2399 46.6063 58.5617L46.6797 58.8156C46.885 59.5266 46.0504 60.0774 45.4774 59.6091C45.1996 59.382 44.8004 59.382 44.5226 59.6091C43.9496 60.0774 43.115 59.5266 43.3203 58.8156L43.3937 58.5617C43.4866 58.2399 43.3787 57.8936 43.1193 57.6816L42.97 57.5596C42.3751 57.0734 42.7189 56.1094 43.4873 56.1094H43.5244C43.8665 56.1094 44.1673 55.8832 44.2622 55.5546Z" fill="#00FFBF"/>
<path d="M58.4551 43.6771C58.6266 43.1492 59.3734 43.1492 59.5449 43.6771C59.6216 43.9131 59.8416 44.0729 60.0898 44.0729C60.6448 44.0729 60.8756 44.7832 60.4266 45.1094C60.2258 45.2553 60.1417 45.5139 60.2184 45.75C60.39 46.2779 59.7858 46.7168 59.3368 46.3906C59.136 46.2447 58.864 46.2447 58.6632 46.3906C58.2142 46.7168 57.61 46.2779 57.7816 45.75C57.8583 45.5139 57.7742 45.2553 57.5734 45.1094C57.1244 44.7832 57.3552 44.0729 57.9102 44.0729C58.1584 44.0729 58.3784 43.9131 58.4551 43.6771Z" fill="#00FFBF"/>
<path d="M36.8815 47.6144C37.4226 46.8333 38.5774 46.8333 39.1185 47.6144C39.7437 48.5168 39.0978 49.75 38 49.75C36.9022 49.75 36.2563 48.5168 36.8815 47.6144Z" fill="#00FFBF"/>
<path d="M51.6262 39.5225C51.9135 38.6931 53.0865 38.6931 53.3738 39.5225C53.5819 40.1233 53.1358 40.75 52.5 40.75C51.8642 40.75 51.4181 40.1233 51.6262 39.5225Z" fill="#00FFBF"/>
<path d="M53.6019 52.2444C54.044 51.6319 54.956 51.6319 55.3981 52.2444C55.9267 52.9768 55.4033 54 54.5 54C53.5967 54 53.0733 52.9768 53.6019 52.2444Z" fill="#00FFBF"/>
<path d="M57.8901 35.8836C58.2812 34.8675 59.7188 34.8675 60.1099 35.8836C60.4097 36.6626 59.8347 37.5 59 37.5C58.1653 37.5 57.5903 36.6626 57.8901 35.8836Z" fill="#00FFBF"/>
<ellipse cx="36.5" cy="58" rx="2.5" ry="3" fill="#00FFBF"/>
<circle cx="45.5" cy="35.5" r="2.5" fill="#00FFBF"/>
<circle cx="47.5" cy="47.5" r="2.5" fill="#00FFBF"/>
<circle cx="59" cy="60" r="2" fill="#00FFBF"/>
<rect y="64" width="32" height="32" fill="#19C89C"/>
<path d="M4.86428 67.9566C5.06437 67.3407 5.93563 67.3407 6.13572 67.9566C6.22521 68.232 6.48186 68.4184 6.77145 68.4184C7.41898 68.4184 7.68822 69.247 7.16435 69.6277C6.93007 69.7979 6.83204 70.0996 6.92152 70.375C7.12162 70.9908 6.41677 71.503 5.8929 71.1223C5.65862 70.9521 5.34138 70.9521 5.1071 71.1223C4.58323 71.503 3.87838 70.9908 4.07848 70.375C4.16796 70.0996 4.06993 69.7979 3.83565 69.6277C3.31178 69.247 3.58102 68.4184 4.22855 68.4184C4.51814 68.4184 4.77479 68.232 4.86428 67.9566Z" fill="#00FFBF"/>
<path d="M12.2622 87.5546C12.4759 86.8147 13.5241 86.8147 13.7378 87.5546C13.8327 87.8832 14.1335 88.1094 14.4756 88.1094H14.5127C15.2811 88.1094 15.6249 89.0734 15.03 89.5596L14.8807 89.6816C14.6213 89.8936 14.5134 90.2399 14.6063 90.5617L14.6797 90.8156C14.885 91.5266 14.0504 92.0774 13.4774 91.6091C13.1996 91.382 12.8004 91.382 12.5226 91.6091C11.9496 92.0774 11.115 91.5266 11.3203 90.8156L11.3937 90.5617C11.4866 90.2399 11.3787 89.8936 11.1193 89.6816L10.97 89.5596C10.3751 89.0734 10.7189 88.1094 11.4873 88.1094H11.5244C11.8665 88.1094 12.1673 87.8832 12.2622 87.5546Z" fill="#00FFBF"/>
<path d="M26.8643 74.9566C27.0644 74.3407 27.9356 74.3407 28.1357 74.9566C28.2252 75.232 28.4819 75.4184 28.7714 75.4184C29.419 75.4184 29.6882 76.247 29.1643 76.6277C28.9301 76.7979 28.832 77.0996 28.9215 77.375C29.1216 77.9908 28.4168 78.503 27.8929 78.1223C27.6586 77.9521 27.3414 77.9521 27.1071 78.1223C26.5832 78.503 25.8784 77.9908 26.0785 77.375C26.168 77.0996 26.0699 76.7979 25.8357 76.6277C25.3118 76.247 25.581 75.4184 26.2286 75.4184C26.5181 75.4184 26.7748 75.232 26.8643 74.9566Z" fill="#00FFBF"/>
<path d="M5.41747 79.875C5.89859 79.0417 7.10141 79.0417 7.58253 79.875C8.06366 80.7083 7.46225 81.75 6.5 81.75C5.53775 81.75 4.93634 80.7083 5.41747 79.875Z" fill="#00FFBF"/>
<path d="M20.134 70.5C20.5189 69.8333 21.4811 69.8333 21.866 70.5C22.2509 71.1667 21.7698 72 21 72C20.2302 72 19.7491 71.1667 20.134 70.5Z" fill="#00FFBF"/>
<path d="M22.134 84.5C22.5189 83.8333 23.4811 83.8333 23.866 84.5C24.2509 85.1667 23.7698 86 23 86C22.2302 86 21.7491 85.1667 22.134 84.5Z" fill="#00FFBF"/>
<path d="M26.4175 66.875C26.8986 66.0417 28.1014 66.0417 28.5825 66.875C29.0637 67.7083 28.4623 68.75 27.5 68.75C26.5378 68.75 25.9363 67.7083 26.4175 66.875Z" fill="#00FFBF"/>
<ellipse cx="4.5" cy="90" rx="2.5" ry="3" fill="#00FFBF"/>
<ellipse cx="14" cy="67.5" rx="2" ry="2.5" fill="#00FFBF"/>
<circle cx="16.5" cy="79.5" r="2.5" fill="#00FFBF"/>
<circle cx="28" cy="92" r="2" fill="#00FFBF"/>
<rect y="96" width="32" height="32" fill="#19C89C"/>
<path d="M4.85311 100.275C5.03833 99.6238 5.96167 99.6238 6.14689 100.275C6.22909 100.564 6.49318 100.764 6.79377 100.764H6.83068C7.50602 100.764 7.81109 101.609 7.29151 102.04L7.1427 102.164C6.91703 102.351 6.8232 102.654 6.90341 102.936L6.97561 103.19C7.1527 103.813 6.41912 104.291 5.92092 103.877C5.67688 103.675 5.32312 103.675 5.07908 103.877C4.58088 104.291 3.8473 103.813 4.02439 103.19L4.09659 102.936C4.1768 102.654 4.08297 102.351 3.8573 102.164L3.70849 102.04C3.18891 101.609 3.49398 100.764 4.16932 100.764H4.20623C4.50682 100.764 4.77091 100.564 4.85311 100.275Z" fill="#00FFBF"/>
<path d="M12.2622 119.555C12.4759 118.815 13.5241 118.815 13.7378 119.555C13.8327 119.883 14.1335 120.109 14.4756 120.109H14.5127C15.2811 120.109 15.6249 121.073 15.03 121.56L14.8807 121.682C14.6213 121.894 14.5134 122.24 14.6063 122.562L14.6797 122.816C14.885 123.527 14.0504 124.077 13.4774 123.609C13.1996 123.382 12.8004 123.382 12.5226 123.609C11.9496 124.077 11.115 123.527 11.3203 122.816L11.3937 122.562C11.4866 122.24 11.3787 121.894 11.1193 121.682L10.97 121.56C10.3751 121.073 10.7189 120.109 11.4873 120.109H11.5244C11.8665 120.109 12.1673 119.883 12.2622 119.555Z" fill="#00FFBF"/>
<path d="M26.8772 107.643C27.0945 107.07 27.9055 107.07 28.1228 107.643L28.1372 107.681C28.2266 107.917 28.4527 108.073 28.705 108.073H28.8664C29.4306 108.073 29.6419 108.812 29.163 109.11C28.9355 109.252 28.8415 109.539 28.9365 109.789C29.1353 110.314 28.5605 110.806 28.0844 110.51L27.8575 110.369C27.6387 110.232 27.3613 110.232 27.1425 110.369L26.9156 110.51C26.4395 110.806 25.8647 110.314 26.0635 109.789C26.1585 109.539 26.0645 109.252 25.837 109.11C25.3581 108.812 25.5694 108.073 26.1336 108.073H26.295C26.5473 108.073 26.7734 107.917 26.8628 107.681L26.8772 107.643Z" fill="#00FFBF"/>
<path d="M5.41747 111.875C5.89859 111.042 7.10141 111.042 7.58253 111.875C8.06366 112.708 7.46225 113.75 6.5 113.75C5.53775 113.75 4.93634 112.708 5.41747 111.875Z" fill="#00FFBF"/>
<path d="M19.9942 103.178C20.3904 102.32 21.6096 102.32 22.0058 103.178C22.3449 103.912 21.8087 104.75 21 104.75C20.1913 104.75 19.6551 103.912 19.9942 103.178Z" fill="#00FFBF"/>
<path d="M22.134 116.5C22.5189 115.833 23.4811 115.833 23.866 116.5C24.2509 117.167 23.7698 118 23 118C22.2302 118 21.7491 117.167 22.134 116.5Z" fill="#00FFBF"/>
<path d="M26.4175 98.875C26.8986 98.0417 28.1014 98.0417 28.5825 98.875C29.0637 99.7083 28.4623 100.75 27.5 100.75C26.5378 100.75 25.9363 99.7083 26.4175 98.875Z" fill="#00FFBF"/>
<ellipse cx="4.5" cy="122" rx="2.5" ry="3" fill="#00FFBF"/>
<ellipse cx="14" cy="99.5" rx="2" ry="2.5" fill="#00FFBF"/>
<circle cx="16.5" cy="111.5" r="2.5" fill="#00FFBF"/>
<circle cx="28" cy="124" r="2" fill="#00FFBF"/>
<rect x="32" y="64" width="32" height="32" fill="#19C89C"/>
<path d="M36.8643 67.9566C37.0644 67.3407 37.9356 67.3407 38.1357 67.9566C38.2252 68.232 38.4819 68.4184 38.7714 68.4184C39.419 68.4184 39.6882 69.247 39.1643 69.6277C38.9301 69.7979 38.832 70.0996 38.9215 70.375C39.1216 70.9908 38.4168 71.503 37.8929 71.1223C37.6586 70.9521 37.3414 70.9521 37.1071 71.1223C36.5832 71.503 35.8784 70.9908 36.0785 70.375C36.168 70.0996 36.0699 69.7979 35.8357 69.6277C35.3118 69.247 35.581 68.4184 36.2286 68.4184C36.5181 68.4184 36.7748 68.232 36.8643 67.9566Z" fill="#00FFBF"/>
<path d="M44.2622 87.5546C44.4759 86.8147 45.5241 86.8147 45.7378 87.5546C45.8327 87.8832 46.1335 88.1094 46.4756 88.1094H46.5127C47.2811 88.1094 47.6249 89.0734 47.03 89.5596L46.8807 89.6816C46.6213 89.8936 46.5134 90.2399 46.6063 90.5617L46.6797 90.8156C46.885 91.5266 46.0504 92.0774 45.4774 91.6091C45.1996 91.382 44.8004 91.382 44.5226 91.6091C43.9496 92.0774 43.115 91.5266 43.3203 90.8156L43.3937 90.5617C43.4866 90.2399 43.3787 89.8936 43.1193 89.6816L42.97 89.5596C42.3751 89.0734 42.7189 88.1094 43.4873 88.1094H43.5244C43.8665 88.1094 44.1673 87.8832 44.2622 87.5546Z" fill="#00FFBF"/>
<path d="M58.4441 74.9962C58.6009 74.4332 59.3991 74.4332 59.5559 74.9962C59.6255 75.2458 59.8528 75.4184 60.1119 75.4184H60.1485C60.7307 75.4184 60.9969 76.1442 60.5528 76.5207L60.4046 76.6463C60.2127 76.8089 60.1331 77.0684 60.2005 77.3107L60.2713 77.5647C60.4202 78.0995 59.7877 78.5046 59.3643 78.1457C59.1541 77.9675 58.8459 77.9675 58.6357 78.1457C58.2123 78.5046 57.5798 78.0995 57.7287 77.5647L57.7995 77.3107C57.8669 77.0684 57.7873 76.8089 57.5954 76.6463L57.4472 76.5207C57.0031 76.1442 57.2693 75.4184 57.8515 75.4184H57.8881C58.1472 75.4184 58.3745 75.2458 58.4441 74.9962Z" fill="#00FFBF"/>
<path d="M37.4175 79.875C37.8986 79.0417 39.1014 79.0417 39.5825 79.875C40.0637 80.7083 39.4623 81.75 38.5 81.75C37.5378 81.75 36.9363 80.7083 37.4175 79.875Z" fill="#00FFBF"/>
<path d="M51.7171 70.8079C52.014 70.1224 52.986 70.1224 53.2829 70.8079C53.5268 71.3712 53.1138 72 52.5 72C51.8862 72 51.4732 71.3712 51.7171 70.8079Z" fill="#00FFBF"/>
<path d="M53.6019 84.2444C54.044 83.6319 54.956 83.6319 55.3981 84.2444C55.9267 84.9768 55.4033 86 54.5 86C53.5967 86 53.0733 84.9768 53.6019 84.2444Z" fill="#00FFBF"/>
<path d="M58.4175 66.875C58.8986 66.0417 60.1014 66.0417 60.5825 66.875C61.0637 67.7083 60.4623 68.75 59.5 68.75C58.5378 68.75 57.9363 67.7083 58.4175 66.875Z" fill="#00FFBF"/>
<ellipse cx="36.5" cy="90" rx="2.5" ry="3" fill="#00FFBF"/>
<circle cx="45.5" cy="67.5" r="2.5" fill="#00FFBF"/>
<ellipse cx="48" cy="79.5" rx="2" ry="2.5" fill="#00FFBF"/>
<ellipse cx="59.5" cy="92" rx="2.5" ry="2" fill="#00FFBF"/>
<rect x="32" y="96" width="32" height="32" fill="#19C89C"/>
<path d="M36.8531 100.275C37.0383 99.6238 37.9617 99.6238 38.1469 100.275C38.2291 100.564 38.4932 100.764 38.7938 100.764H38.8307C39.506 100.764 39.8111 101.609 39.2915 102.04L39.1427 102.164C38.917 102.351 38.8232 102.654 38.9034 102.936L38.9756 103.19C39.1527 103.813 38.4191 104.291 37.9209 103.877C37.6769 103.675 37.3231 103.675 37.0791 103.877C36.5809 104.291 35.8473 103.813 36.0244 103.19L36.0966 102.936C36.1768 102.654 36.083 102.351 35.8573 102.164L35.7085 102.04C35.1889 101.609 35.494 100.764 36.1693 100.764H36.2062C36.5068 100.764 36.7709 100.564 36.8531 100.275Z" fill="#00FFBF"/>
<path d="M44.2622 119.555C44.4759 118.815 45.5241 118.815 45.7378 119.555C45.8327 119.883 46.1335 120.109 46.4756 120.109H46.5127C47.2811 120.109 47.6249 121.073 47.03 121.56L46.8807 121.682C46.6213 121.894 46.5134 122.24 46.6063 122.562L46.6797 122.816C46.885 123.527 46.0504 124.077 45.4774 123.609C45.1996 123.382 44.8004 123.382 44.5226 123.609C43.9496 124.077 43.115 123.527 43.3203 122.816L43.3937 122.562C43.4866 122.24 43.3787 121.894 43.1193 121.682L42.97 121.56C42.3751 121.073 42.7189 120.109 43.4873 120.109H43.5244C43.8665 120.109 44.1673 119.883 44.2622 119.555Z" fill="#00FFBF"/>
<path d="M58.4551 107.677C58.6266 107.149 59.3734 107.149 59.5449 107.677C59.6216 107.913 59.8416 108.073 60.0898 108.073C60.6448 108.073 60.8756 108.783 60.4266 109.109C60.2258 109.255 60.1417 109.514 60.2184 109.75C60.39 110.278 59.7858 110.717 59.3368 110.391C59.136 110.245 58.864 110.245 58.6632 110.391C58.2142 110.717 57.61 110.278 57.7816 109.75C57.8583 109.514 57.7742 109.255 57.5734 109.109C57.1244 108.783 57.3552 108.073 57.9102 108.073C58.1584 108.073 58.3784 107.913 58.4551 107.677Z" fill="#00FFBF"/>
<path d="M37.4175 111.875C37.8986 111.042 39.1014 111.042 39.5825 111.875C40.0637 112.708 39.4623 113.75 38.5 113.75C37.5378 113.75 36.9363 112.708 37.4175 111.875Z" fill="#00FFBF"/>
<path d="M51.6262 103.523C51.9135 102.693 53.0865 102.693 53.3738 103.523C53.5819 104.123 53.1358 104.75 52.5 104.75C51.8642 104.75 51.4181 104.123 51.6262 103.523Z" fill="#00FFBF"/>
<path d="M53.6019 116.244C54.044 115.632 54.956 115.632 55.3981 116.244C55.9267 116.977 55.4033 118 54.5 118C53.5967 118 53.0733 116.977 53.6019 116.244Z" fill="#00FFBF"/>
<path d="M58.4175 98.875C58.8986 98.0417 60.1014 98.0417 60.5825 98.875C61.0637 99.7083 60.4623 100.75 59.5 100.75C58.5378 100.75 57.9363 99.7083 58.4175 98.875Z" fill="#00FFBF"/>
<ellipse cx="36.5" cy="122" rx="2.5" ry="3" fill="#00FFBF"/>
<circle cx="45.5" cy="99.5" r="2.5" fill="#00FFBF"/>
<ellipse cx="48" cy="111.5" rx="2" ry="2.5" fill="#00FFBF"/>
<ellipse cx="59.5" cy="124" rx="2.5" ry="2" fill="#00FFBF"/>
<rect x="64" width="32" height="32" fill="#19C89C"/>
<path d="M68.8531 4.27532C69.0383 3.62385 69.9617 3.62385 70.1469 4.27532C70.2291 4.56446 70.4932 4.76393 70.7938 4.76393H70.8307C71.506 4.76393 71.8111 5.60889 71.2915 6.04031L71.1427 6.16388C70.917 6.35125 70.8232 6.65415 70.9034 6.93629L70.9756 7.19025C71.1527 7.81313 70.4191 8.29104 69.9209 7.87737C69.6769 7.67474 69.3231 7.67474 69.0791 7.87737C68.5809 8.29104 67.8473 7.81313 68.0244 7.19025L68.0966 6.93629C68.1768 6.65415 68.083 6.35125 67.8573 6.16388L67.7085 6.04031C67.1889 5.60889 67.494 4.76393 68.1693 4.76393H68.2062C68.5068 4.76393 68.7709 4.56446 68.8531 4.27532Z" fill="#00FFBF"/>
<path d="M76.2622 23.5546C76.4759 22.8147 77.5241 22.8147 77.7378 23.5546C77.8327 23.8832 78.1335 24.1094 78.4756 24.1094H78.5127C79.2811 24.1094 79.6249 25.0734 79.03 25.5596L78.8807 25.6816C78.6213 25.8936 78.5134 26.2399 78.6063 26.5617L78.6797 26.8156C78.885 27.5266 78.0504 28.0774 77.4774 27.6091C77.1996 27.382 76.8004 27.382 76.5226 27.6091C75.9496 28.0774 75.115 27.5266 75.3203 26.8156L75.3937 26.5617C75.4866 26.2399 75.3787 25.8936 75.1193 25.6816L74.97 25.5596C74.3751 25.0734 74.7189 24.1094 75.4873 24.1094H75.5244C75.8665 24.1094 76.1673 23.8832 76.2622 23.5546Z" fill="#00FFBF"/>
<path d="M90.4551 11.6771C90.6266 11.1492 91.3734 11.1492 91.5449 11.6771C91.6216 11.9131 91.8416 12.0729 92.0898 12.0729C92.6448 12.0729 92.8756 12.7832 92.4266 13.1094C92.2258 13.2553 92.1417 13.5139 92.2184 13.75C92.39 14.2779 91.7858 14.7168 91.3368 14.3906C91.136 14.2447 90.864 14.2447 90.6632 14.3906C90.2142 14.7168 89.61 14.2779 89.7816 13.75C89.8583 13.5139 89.7742 13.2553 89.5734 13.1094C89.1244 12.7832 89.3552 12.0729 89.9102 12.0729C90.1584 12.0729 90.3784 11.9131 90.4551 11.6771Z" fill="#00FFBF"/>
<path d="M69.2736 16.549C69.7681 15.5211 71.2319 15.5211 71.7264 16.549C72.1611 17.4525 71.5027 18.5 70.5 18.5C69.4973 18.5 68.8389 17.4525 69.2736 16.549Z" fill="#00FFBF"/>
<path d="M83.6262 7.52252C83.9135 6.6931 85.0865 6.6931 85.3738 7.52252C85.5819 8.12328 85.1358 8.75 84.5 8.75C83.8642 8.75 83.4181 8.12328 83.6262 7.52252Z" fill="#00FFBF"/>
<path d="M85.6019 20.2444C86.044 19.6319 86.956 19.6319 87.3981 20.2444C87.9267 20.9768 87.4033 22 86.5 22C85.5967 22 85.0733 20.9768 85.6019 20.2444Z" fill="#00FFBF"/>
<path d="M89.9942 3.17757C90.3904 2.3198 91.6096 2.3198 92.0058 3.17757C92.3449 3.9117 91.8087 4.75 91 4.75C90.1913 4.75 89.6551 3.9117 89.9942 3.17757Z" fill="#00FFBF"/>
<ellipse cx="68.5" cy="26" rx="2.5" ry="3" fill="#00FFBF"/>
<circle cx="77.5" cy="3.5" r="2.5" fill="#00FFBF"/>
<ellipse cx="80" cy="15.5" rx="2" ry="2.5" fill="#00FFBF"/>
<circle cx="91" cy="28" r="2" fill="#00FFBF"/>
<rect x="64" y="32" width="32" height="32" fill="#19C89C"/>
<path d="M68.8531 36.2753C69.0383 35.6238 69.9617 35.6238 70.1469 36.2753C70.2291 36.5645 70.4932 36.7639 70.7938 36.7639H70.8307C71.506 36.7639 71.8111 37.6089 71.2915 38.0403L71.1427 38.1639C70.917 38.3513 70.8232 38.6541 70.9034 38.9363L70.9756 39.1903C71.1527 39.8131 70.4191 40.291 69.9209 39.8774C69.6769 39.6747 69.3231 39.6747 69.0791 39.8774C68.5809 40.291 67.8473 39.8131 68.0244 39.1903L68.0966 38.9363C68.1768 38.6541 68.083 38.3513 67.8573 38.1639L67.7085 38.0403C67.1889 37.6089 67.494 36.7639 68.1693 36.7639H68.2062C68.5068 36.7639 68.7709 36.5645 68.8531 36.2753Z" fill="#00FFBF"/>
<path d="M76.2622 55.5546C76.4759 54.8147 77.5241 54.8147 77.7378 55.5546C77.8327 55.8832 78.1335 56.1094 78.4756 56.1094H78.5127C79.2811 56.1094 79.6249 57.0734 79.03 57.5596L78.8807 57.6816C78.6213 57.8936 78.5134 58.2399 78.6063 58.5617L78.6797 58.8156C78.885 59.5266 78.0504 60.0774 77.4774 59.6091C77.1996 59.382 76.8004 59.382 76.5226 59.6091C75.9496 60.0774 75.115 59.5266 75.3203 58.8156L75.3937 58.5617C75.4866 58.2399 75.3787 57.8936 75.1193 57.6816L74.97 57.5596C74.3751 57.0734 74.7189 56.1094 75.4873 56.1094H75.5244C75.8665 56.1094 76.1673 55.8832 76.2622 55.5546Z" fill="#00FFBF"/>
<path d="M90.4551 43.6771C90.6266 43.1492 91.3734 43.1492 91.5449 43.6771C91.6216 43.9131 91.8416 44.0729 92.0898 44.0729C92.6448 44.0729 92.8756 44.7832 92.4266 45.1094C92.2258 45.2553 92.1417 45.5139 92.2184 45.75C92.39 46.2779 91.7858 46.7168 91.3368 46.3906C91.136 46.2447 90.864 46.2447 90.6632 46.3906C90.2142 46.7168 89.61 46.2779 89.7816 45.75C89.8583 45.5139 89.7742 45.2553 89.5734 45.1094C89.1244 44.7832 89.3552 44.0729 89.9102 44.0729C90.1584 44.0729 90.3784 43.9131 90.4551 43.6771Z" fill="#00FFBF"/>
<path d="M69.4175 47.875C69.8986 47.0417 71.1014 47.0417 71.5825 47.875C72.0637 48.7083 71.4623 49.75 70.5 49.75C69.5378 49.75 68.9363 48.7083 69.4175 47.875Z" fill="#00FFBF"/>
<path d="M83.6262 39.5225C83.9135 38.6931 85.0865 38.6931 85.3738 39.5225C85.5819 40.1233 85.1358 40.75 84.5 40.75C83.8642 40.75 83.4181 40.1233 83.6262 39.5225Z" fill="#00FFBF"/>
<path d="M85.6019 52.2444C86.044 51.6319 86.956 51.6319 87.3981 52.2444C87.9267 52.9768 87.4033 54 86.5 54C85.5967 54 85.0733 52.9768 85.6019 52.2444Z" fill="#00FFBF"/>
<path d="M89.8901 35.8836C90.2812 34.8675 91.7188 34.8675 92.1099 35.8836C92.4097 36.6626 91.8347 37.5 91 37.5C90.1653 37.5 89.5903 36.6626 89.8901 35.8836Z" fill="#00FFBF"/>
<ellipse cx="68.5" cy="58" rx="2.5" ry="3" fill="#00FFBF"/>
<circle cx="77.5" cy="35.5" r="2.5" fill="#00FFBF"/>
<ellipse cx="80" cy="47.5" rx="2" ry="2.5" fill="#00FFBF"/>
<circle cx="91" cy="60" r="2" fill="#00FFBF"/>
<rect x="95" width="33" height="32" fill="#19C89C"/>
<path d="M100.853 4.27532C101.038 3.62385 101.962 3.62385 102.147 4.27532C102.229 4.56446 102.493 4.76393 102.794 4.76393H102.831C103.506 4.76393 103.811 5.60889 103.292 6.04031L103.143 6.16388C102.917 6.35125 102.823 6.65415 102.903 6.93629L102.976 7.19025C103.153 7.81313 102.419 8.29104 101.921 7.87737C101.677 7.67474 101.323 7.67474 101.079 7.87737C100.581 8.29104 99.8473 7.81313 100.024 7.19025L100.097 6.93629C100.177 6.65415 100.083 6.35125 99.8573 6.16388L99.7085 6.04031C99.1889 5.60889 99.494 4.76393 100.169 4.76393H100.206C100.507 4.76393 100.771 4.56446 100.853 4.27532Z" fill="#00FFBF"/>
<path d="M107.671 23.8338C107.913 23.0058 109.087 23.0058 109.329 23.8338C109.436 24.2019 109.774 24.4549 110.157 24.4549H110.195C111.056 24.4549 111.438 25.5377 110.768 26.0787L110.619 26.1995C110.326 26.4361 110.204 26.8256 110.309 27.1871L110.384 27.4409C110.617 28.24 109.682 28.8638 109.034 28.3408C108.722 28.0893 108.278 28.0893 107.966 28.3408C107.318 28.8638 106.383 28.24 106.616 27.4409L106.691 27.1871C106.796 26.8256 106.674 26.4361 106.381 26.1995L106.232 26.0787C105.562 25.5377 105.944 24.4549 106.805 24.4549H106.843C107.226 24.4549 107.564 24.2019 107.671 23.8338Z" fill="#00FFBF"/>
<path d="M122.455 11.6771C122.627 11.1492 123.373 11.1492 123.545 11.6771C123.622 11.9131 123.842 12.0729 124.09 12.0729C124.645 12.0729 124.876 12.7832 124.427 13.1094C124.226 13.2553 124.142 13.5139 124.218 13.75C124.39 14.2779 123.786 14.7168 123.337 14.3906C123.136 14.2447 122.864 14.2447 122.663 14.3906C122.214 14.7168 121.61 14.2779 121.782 13.75C121.858 13.5139 121.774 13.2553 121.573 13.1094C121.124 12.7832 121.355 12.0729 121.91 12.0729C122.158 12.0729 122.378 11.9131 122.455 11.6771Z" fill="#00FFBF"/>
<path d="M100.274 16.549C100.768 15.5211 102.232 15.5211 102.726 16.549C103.161 17.4525 102.503 18.5 101.5 18.5C100.497 18.5 99.8389 17.4525 100.274 16.549Z" fill="#00FFBF"/>
<path d="M115.626 7.52252C115.913 6.6931 117.087 6.6931 117.374 7.52252C117.582 8.12328 117.136 8.75 116.5 8.75C115.864 8.75 115.418 8.12328 115.626 7.52252Z" fill="#00FFBF"/>
<path d="M117.602 20.2444C118.044 19.6319 118.956 19.6319 119.398 20.2444C119.927 20.9768 119.403 22 118.5 22C117.597 22 117.073 20.9768 117.602 20.2444Z" fill="#00FFBF"/>
<path d="M121.602 3.24438C122.044 2.63187 122.956 2.63187 123.398 3.24438C123.927 3.97684 123.403 5 122.5 5C121.597 5 121.073 3.97684 121.602 3.24438Z" fill="#00FFBF"/>
<ellipse cx="100.5" cy="26" rx="2.5" ry="3" fill="#00FFBF"/>
<circle cx="109.5" cy="3.5" r="2.5" fill="#00FFBF"/>
<circle cx="111.5" cy="15.5" r="2.5" fill="#00FFBF"/>
<circle cx="123" cy="28" r="2" fill="#00FFBF"/>
<rect x="95" y="32" width="33" height="32" fill="#19C89C"/>
<path d="M100.853 36.2753C101.038 35.6238 101.962 35.6238 102.147 36.2753C102.229 36.5645 102.493 36.7639 102.794 36.7639H102.831C103.506 36.7639 103.811 37.6089 103.292 38.0403L103.143 38.1639C102.917 38.3513 102.823 38.6541 102.903 38.9363L102.976 39.1903C103.153 39.8131 102.419 40.291 101.921 39.8774C101.677 39.6747 101.323 39.6747 101.079 39.8774C100.581 40.291 99.8473 39.8131 100.024 39.1903L100.097 38.9363C100.177 38.6541 100.083 38.3513 99.8573 38.1639L99.7085 38.0403C99.1889 37.6089 99.494 36.7639 100.169 36.7639H100.206C100.507 36.7639 100.771 36.5645 100.853 36.2753Z" fill="#00FFBF"/>
<path d="M107.683 55.5156C107.94 54.7238 109.06 54.7238 109.317 55.5156C109.432 55.8697 109.762 56.1094 110.135 56.1094C110.967 56.1094 111.313 57.1748 110.64 57.6641C110.339 57.883 110.213 58.2709 110.328 58.625C110.585 59.4168 109.679 60.0752 109.005 59.5859C108.704 59.367 108.296 59.367 107.995 59.5859C107.321 60.0752 106.415 59.4168 106.672 58.625C106.787 58.2709 106.661 57.883 106.36 57.6641C105.687 57.1748 106.033 56.1094 106.865 56.1094C107.238 56.1094 107.568 55.8697 107.683 55.5156Z" fill="#00FFBF"/>
<path d="M122.455 43.6771C122.627 43.1492 123.373 43.1492 123.545 43.6771C123.622 43.9131 123.842 44.0729 124.09 44.0729C124.645 44.0729 124.876 44.7832 124.427 45.1094C124.226 45.2553 124.142 45.5139 124.218 45.75C124.39 46.2779 123.786 46.7168 123.337 46.3906C123.136 46.2447 122.864 46.2447 122.663 46.3906C122.214 46.7168 121.61 46.2779 121.782 45.75C121.858 45.5139 121.774 45.2553 121.573 45.1094C121.124 44.7832 121.355 44.0729 121.91 44.0729C122.158 44.0729 122.378 43.9131 122.455 43.6771Z" fill="#00FFBF"/>
<path d="M100.274 48.549C100.768 47.5211 102.232 47.5211 102.726 48.549C103.161 49.4525 102.503 50.5 101.5 50.5C100.497 50.5 99.8389 49.4525 100.274 48.549Z" fill="#00FFBF"/>
<path d="M115.626 39.5225C115.913 38.6931 117.087 38.6931 117.374 39.5225C117.582 40.1233 117.136 40.75 116.5 40.75C115.864 40.75 115.418 40.1233 115.626 39.5225Z" fill="#00FFBF"/>
<path d="M117.602 52.2444C118.044 51.6319 118.956 51.6319 119.398 52.2444C119.927 52.9768 119.403 54 118.5 54C117.597 54 117.073 52.9768 117.602 52.2444Z" fill="#00FFBF"/>
<path d="M121.274 35.549C121.768 34.5211 123.232 34.5211 123.726 35.549C124.161 36.4525 123.503 37.5 122.5 37.5C121.497 37.5 120.839 36.4525 121.274 35.549Z" fill="#00FFBF"/>
<ellipse cx="100.5" cy="58" rx="2.5" ry="3" fill="#00FFBF"/>
<circle cx="109.5" cy="35.5" r="2.5" fill="#00FFBF"/>
<circle cx="111.5" cy="47.5" r="2.5" fill="#00FFBF"/>
<circle cx="123" cy="60" r="2" fill="#00FFBF"/>
<rect x="64" y="64" width="32" height="32" fill="#19C89C"/>
<path d="M68.8643 67.9566C69.0644 67.3407 69.9356 67.3407 70.1357 67.9566C70.2252 68.232 70.4819 68.4184 70.7714 68.4184C71.419 68.4184 71.6882 69.247 71.1643 69.6277C70.9301 69.7979 70.832 70.0996 70.9215 70.375C71.1216 70.9908 70.4168 71.503 69.8929 71.1223C69.6586 70.9521 69.3414 70.9521 69.1071 71.1223C68.5832 71.503 67.8784 70.9908 68.0785 70.375C68.168 70.0996 68.0699 69.7979 67.8357 69.6277C67.3118 69.247 67.581 68.4184 68.2286 68.4184C68.5181 68.4184 68.7748 68.232 68.8643 67.9566Z" fill="#00FFBF"/>
<path d="M76.2622 87.5546C76.4759 86.8147 77.5241 86.8147 77.7378 87.5546C77.8327 87.8832 78.1335 88.1094 78.4756 88.1094H78.5127C79.2811 88.1094 79.6249 89.0734 79.03 89.5596L78.8807 89.6816C78.6213 89.8936 78.5134 90.2399 78.6063 90.5617L78.6797 90.8156C78.885 91.5266 78.0504 92.0774 77.4774 91.6091C77.1996 91.382 76.8004 91.382 76.5226 91.6091C75.9496 92.0774 75.115 91.5266 75.3203 90.8156L75.3937 90.5617C75.4866 90.2399 75.3787 89.8936 75.1193 89.6816L74.97 89.5596C74.3751 89.0734 74.7189 88.1094 75.4873 88.1094H75.5244C75.8665 88.1094 76.1673 87.8832 76.2622 87.5546Z" fill="#00FFBF"/>
<path d="M90.4441 74.9962C90.6009 74.4332 91.3991 74.4332 91.5559 74.9962C91.6255 75.2458 91.8528 75.4184 92.1119 75.4184H92.1485C92.7307 75.4184 92.9969 76.1442 92.5528 76.5207L92.4046 76.6463C92.2127 76.8089 92.1331 77.0684 92.2005 77.3107L92.2713 77.5647C92.4202 78.0995 91.7877 78.5046 91.3643 78.1457C91.1541 77.9675 90.8459 77.9675 90.6357 78.1457C90.2123 78.5046 89.5798 78.0995 89.7287 77.5647L89.7995 77.3107C89.8669 77.0684 89.7873 76.8089 89.5954 76.6463L89.4472 76.5207C89.0031 76.1442 89.2693 75.4184 89.8515 75.4184H89.8881C90.1472 75.4184 90.3745 75.2458 90.4441 74.9962Z" fill="#00FFBF"/>
<path d="M69.4175 79.875C69.8986 79.0417 71.1014 79.0417 71.5825 79.875C72.0637 80.7083 71.4623 81.75 70.5 81.75C69.5378 81.75 68.9363 80.7083 69.4175 79.875Z" fill="#00FFBF"/>
<path d="M83.7171 70.8079C84.014 70.1224 84.986 70.1224 85.2829 70.8079C85.5268 71.3712 85.1138 72 84.5 72C83.8862 72 83.4732 71.3712 83.7171 70.8079Z" fill="#00FFBF"/>
<path d="M85.6019 84.2444C86.044 83.6319 86.956 83.6319 87.3981 84.2444C87.9267 84.9768 87.4033 86 86.5 86C85.5967 86 85.0733 84.9768 85.6019 84.2444Z" fill="#00FFBF"/>
<path d="M90.4175 66.875C90.8986 66.0417 92.1014 66.0417 92.5825 66.875C93.0637 67.7083 92.4623 68.75 91.5 68.75C90.5378 68.75 89.9363 67.7083 90.4175 66.875Z" fill="#00FFBF"/>
<ellipse cx="68.5" cy="90" rx="2.5" ry="3" fill="#00FFBF"/>
<circle cx="77.5" cy="67.5" r="2.5" fill="#00FFBF"/>
<ellipse cx="80" cy="79.5" rx="2" ry="2.5" fill="#00FFBF"/>
<ellipse cx="91.5" cy="92" rx="2.5" ry="2" fill="#00FFBF"/>
<rect x="64" y="96" width="32" height="32" fill="#19C89C"/>
<path d="M68.8531 100.275C69.0383 99.6238 69.9617 99.6238 70.1469 100.275C70.2291 100.564 70.4932 100.764 70.7938 100.764H70.8307C71.506 100.764 71.8111 101.609 71.2915 102.04L71.1427 102.164C70.917 102.351 70.8232 102.654 70.9034 102.936L70.9756 103.19C71.1527 103.813 70.4191 104.291 69.9209 103.877C69.6769 103.675 69.3231 103.675 69.0791 103.877C68.5809 104.291 67.8473 103.813 68.0244 103.19L68.0966 102.936C68.1768 102.654 68.083 102.351 67.8573 102.164L67.7085 102.04C67.1889 101.609 67.494 100.764 68.1693 100.764H68.2062C68.5068 100.764 68.7709 100.564 68.8531 100.275Z" fill="#00FFBF"/>
<path d="M76.2622 119.555C76.4759 118.815 77.5241 118.815 77.7378 119.555C77.8327 119.883 78.1335 120.109 78.4756 120.109H78.5127C79.2811 120.109 79.6249 121.073 79.03 121.56L78.8807 121.682C78.6213 121.894 78.5134 122.24 78.6063 122.562L78.6797 122.816C78.885 123.527 78.0504 124.077 77.4774 123.609C77.1996 123.382 76.8004 123.382 76.5226 123.609C75.9496 124.077 75.115 123.527 75.3203 122.816L75.3937 122.562C75.4866 122.24 75.3787 121.894 75.1193 121.682L74.97 121.56C74.3751 121.073 74.7189 120.109 75.4873 120.109H75.5244C75.8665 120.109 76.1673 119.883 76.2622 119.555Z" fill="#00FFBF"/>
<path d="M90.4551 107.677C90.6266 107.149 91.3734 107.149 91.5449 107.677C91.6216 107.913 91.8416 108.073 92.0898 108.073C92.6448 108.073 92.8756 108.783 92.4266 109.109C92.2258 109.255 92.1417 109.514 92.2184 109.75C92.39 110.278 91.7858 110.717 91.3368 110.391C91.136 110.245 90.864 110.245 90.6632 110.391C90.2142 110.717 89.61 110.278 89.7816 109.75C89.8583 109.514 89.7742 109.255 89.5734 109.109C89.1244 108.783 89.3552 108.073 89.9102 108.073C90.1584 108.073 90.3784 107.913 90.4551 107.677Z" fill="#00FFBF"/>
<path d="M69.4175 111.875C69.8986 111.042 71.1014 111.042 71.5825 111.875C72.0637 112.708 71.4623 113.75 70.5 113.75C69.5378 113.75 68.9363 112.708 69.4175 111.875Z" fill="#00FFBF"/>
<path d="M83.6262 103.523C83.9135 102.693 85.0865 102.693 85.3738 103.523C85.5819 104.123 85.1358 104.75 84.5 104.75C83.8642 104.75 83.4181 104.123 83.6262 103.523Z" fill="#00FFBF"/>
<path d="M85.6019 116.244C86.044 115.632 86.956 115.632 87.3981 116.244C87.9267 116.977 87.4033 118 86.5 118C85.5967 118 85.0733 116.977 85.6019 116.244Z" fill="#00FFBF"/>
<path d="M90.4175 98.875C90.8986 98.0417 92.1014 98.0417 92.5825 98.875C93.0637 99.7083 92.4623 100.75 91.5 100.75C90.5378 100.75 89.9363 99.7083 90.4175 98.875Z" fill="#00FFBF"/>
<ellipse cx="68.5" cy="122" rx="2.5" ry="3" fill="#00FFBF"/>
<circle cx="77.5" cy="99.5" r="2.5" fill="#00FFBF"/>
<ellipse cx="80" cy="111.5" rx="2" ry="2.5" fill="#00FFBF"/>
<ellipse cx="91.5" cy="124" rx="2.5" ry="2" fill="#00FFBF"/>
<rect x="96" y="64" width="32" height="32" fill="#19C89C"/>
<path d="M100.853 68.2753C101.038 67.6238 101.962 67.6238 102.147 68.2753C102.229 68.5645 102.493 68.7639 102.794 68.7639H102.831C103.506 68.7639 103.811 69.6089 103.292 70.0403L103.143 70.1639C102.917 70.3513 102.823 70.6541 102.903 70.9363L102.976 71.1903C103.153 71.8131 102.419 72.291 101.921 71.8774C101.677 71.6747 101.323 71.6747 101.079 71.8774C100.581 72.291 99.8473 71.8131 100.024 71.1903L100.097 70.9363C100.177 70.6541 100.083 70.3513 99.8573 70.1639L99.7085 70.0403C99.1889 69.6089 99.494 68.7639 100.169 68.7639H100.206C100.507 68.7639 100.771 68.5645 100.853 68.2753Z" fill="#00FFBF"/>
<path d="M108.262 87.5546C108.476 86.8147 109.524 86.8147 109.738 87.5546C109.833 87.8832 110.134 88.1094 110.476 88.1094H110.513C111.281 88.1094 111.625 89.0734 111.03 89.5596L110.881 89.6816C110.621 89.8936 110.513 90.2399 110.606 90.5617L110.68 90.8156C110.885 91.5266 110.05 92.0774 109.477 91.6091C109.2 91.382 108.8 91.382 108.523 91.6091C107.95 92.0774 107.115 91.5266 107.32 90.8156L107.394 90.5617C107.487 90.2399 107.379 89.8936 107.119 89.6816L106.97 89.5596C106.375 89.0734 106.719 88.1094 107.487 88.1094H107.524C107.866 88.1094 108.167 87.8832 108.262 87.5546Z" fill="#00FFBF"/>
<path d="M122.444 74.9962C122.601 74.4332 123.399 74.4332 123.556 74.9962C123.625 75.2458 123.853 75.4184 124.112 75.4184H124.148C124.731 75.4184 124.997 76.1442 124.553 76.5207L124.405 76.6463C124.213 76.8089 124.133 77.0684 124.201 77.3107L124.271 77.5647C124.42 78.0995 123.788 78.5046 123.364 78.1457C123.154 77.9675 122.846 77.9675 122.636 78.1457C122.212 78.5046 121.58 78.0995 121.729 77.5647L121.799 77.3107C121.867 77.0684 121.787 76.8089 121.595 76.6463L121.447 76.5207C121.003 76.1442 121.269 75.4184 121.852 75.4184H121.888C122.147 75.4184 122.375 75.2458 122.444 74.9962Z" fill="#00FFBF"/>
<path d="M100.882 79.6144C101.423 78.8333 102.577 78.8333 103.118 79.6144C103.744 80.5168 103.098 81.75 102 81.75C100.902 81.75 100.256 80.5168 100.882 79.6144Z" fill="#00FFBF"/>
<path d="M115.717 70.8079C116.014 70.1224 116.986 70.1224 117.283 70.8079C117.527 71.3712 117.114 72 116.5 72C115.886 72 115.473 71.3712 115.717 70.8079Z" fill="#00FFBF"/>
<path d="M117.602 84.2444C118.044 83.6319 118.956 83.6319 119.398 84.2444C119.927 84.9768 119.403 86 118.5 86C117.597 86 117.073 84.9768 117.602 84.2444Z" fill="#00FFBF"/>
<path d="M121.417 66.875C121.899 66.0417 123.101 66.0417 123.583 66.875C124.064 67.7083 123.462 68.75 122.5 68.75C121.538 68.75 120.936 67.7083 121.417 66.875Z" fill="#00FFBF"/>
<ellipse cx="100.5" cy="90" rx="2.5" ry="3" fill="#00FFBF"/>
<circle cx="109.5" cy="67.5" r="2.5" fill="#00FFBF"/>
<ellipse cx="112" cy="79.5" rx="2" ry="2.5" fill="#00FFBF"/>
<circle cx="123" cy="92" r="2" fill="#00FFBF"/>
<rect x="96" y="96" width="32" height="32" fill="#19C89C"/>
<path d="M100.853 100.275C101.038 99.6238 101.962 99.6238 102.147 100.275C102.229 100.564 102.493 100.764 102.794 100.764H102.831C103.506 100.764 103.811 101.609 103.292 102.04L103.143 102.164C102.917 102.351 102.823 102.654 102.903 102.936L102.976 103.19C103.153 103.813 102.419 104.291 101.921 103.877C101.677 103.675 101.323 103.675 101.079 103.877C100.581 104.291 99.8473 103.813 100.024 103.19L100.097 102.936C100.177 102.654 100.083 102.351 99.8573 102.164L99.7085 102.04C99.1889 101.609 99.494 100.764 100.169 100.764H100.206C100.507 100.764 100.771 100.564 100.853 100.275Z" fill="#00FFBF"/>
<path d="M108.262 119.555C108.476 118.815 109.524 118.815 109.738 119.555C109.833 119.883 110.134 120.109 110.476 120.109H110.513C111.281 120.109 111.625 121.073 111.03 121.56L110.881 121.682C110.621 121.894 110.513 122.24 110.606 122.562L110.68 122.816C110.885 123.527 110.05 124.077 109.477 123.609C109.2 123.382 108.8 123.382 108.523 123.609C107.95 124.077 107.115 123.527 107.32 122.816L107.394 122.562C107.487 122.24 107.379 121.894 107.119 121.682L106.97 121.56C106.375 121.073 106.719 120.109 107.487 120.109H107.524C107.866 120.109 108.167 119.883 108.262 119.555Z" fill="#00FFBF"/>
<path d="M122.455 107.677C122.627 107.149 123.373 107.149 123.545 107.677C123.622 107.913 123.842 108.073 124.09 108.073C124.645 108.073 124.876 108.783 124.427 109.109C124.226 109.255 124.142 109.514 124.218 109.75C124.39 110.278 123.786 110.717 123.337 110.391C123.136 110.245 122.864 110.245 122.663 110.391C122.214 110.717 121.61 110.278 121.782 109.75C121.858 109.514 121.774 109.255 121.573 109.109C121.124 108.783 121.355 108.073 121.91 108.073C122.158 108.073 122.378 107.913 122.455 107.677Z" fill="#00FFBF"/>
<path d="M100.882 111.614C101.423 110.833 102.577 110.833 103.118 111.614C103.744 112.517 103.098 113.75 102 113.75C100.902 113.75 100.256 112.517 100.882 111.614Z" fill="#00FFBF"/>
<path d="M115.626 103.523C115.913 102.693 117.087 102.693 117.374 103.523C117.582 104.123 117.136 104.75 116.5 104.75C115.864 104.75 115.418 104.123 115.626 103.523Z" fill="#00FFBF"/>
<path d="M117.602 116.244C118.044 115.632 118.956 115.632 119.398 116.244C119.927 116.977 119.403 118 118.5 118C117.597 118 117.073 116.977 117.602 116.244Z" fill="#00FFBF"/>
<path d="M121.417 98.875C121.899 98.0417 123.101 98.0417 123.583 98.875C124.064 99.7083 123.462 100.75 122.5 100.75C121.538 100.75 120.936 99.7083 121.417 98.875Z" fill="#00FFBF"/>
<ellipse cx="100.5" cy="122" rx="2.5" ry="3" fill="#00FFBF"/>
<circle cx="109.5" cy="99.5" r="2.5" fill="#00FFBF"/>
<ellipse cx="112" cy="111.5" rx="2" ry="2.5" fill="#00FFBF"/>
<circle cx="123" cy="124" r="2" fill="#00FFBF"/>
</g>
<defs>
<clipPath id="clip0_2_867">
<rect width="128" height="128" fill="white"/>
</clipPath>
</defs>
</svg>
